<?xml version="1.0" encoding="utf-8"?>
<!-- Generator: Adobe Illustrator 16.0.0, SVG Export Plug-In . SVG Version: 6.00 Build 0)  -->
<!DOCTYPE svg PUBLIC "-//W3C//DTD SVG 1.1//EN" "http://www.w3.org/Graphics/SVG/1.1/DTD/svg11.dtd">
<svg version="1.1" xmlns="http://www.w3.org/2000/svg" xmlns:xlink="http://www.w3.org/1999/xlink" x="0px" y="0px" width="300px"
	 height="300px" viewBox="0 0 300 300" enable-background="new 0 0 300 300" xml:space="preserve">
<g id="base">
	<polygon fill="#998675" points="200,200 200,160 195,160 195,150 190,150 185,150 185,145 180,145 180,140 115,140 115,145 
		110,145 110,150 105,150 105,160 100,160 100,240 100,260 105,260 105,270 115,270 115,300 175,300 175,270 190,270 190,260 
		200,260 200,225 205,225 205,220 210,220 210,200 	"/>
	<polygon fill="#736357" points="130,225 130,205 125,205 125,225 125,230 140,230 140,225 	"/>
	<rect x="100" y="190" fill="#3A3632" width="20" height="5"/>
	<rect x="120" y="245" fill="#736357" width="25" height="5"/>
	<rect x="145" y="190" fill="#3A3632" width="25" height="5"/>
	<rect x="105" y="200" fill="#3A3632" width="5" height="5"/>
	<rect x="150" y="200" fill="#3A3632" width="5" height="5"/>
	<rect x="155" y="270" fill="#736357" width="20" height="5"/>
	<rect x="125" y="260" fill="#736357" width="15" height="5"/>
	<rect x="115" y="270" fill="#736357" width="5" height="5"/>
	<polygon fill="#736357" points="195,205 205,205 205,210 200,210 200,215 195,215 	"/>
</g>
<g id="beard">
	<path fill="#3A3632" d="M195,220v10h-15v10h-20v-10h-5h-40h-5v10h-10v-20h-5v20v25h5v10h10v10h70v-10h15v-10h5v-25v-10v-10H195z
		 M115,235h40v20h-40V235z"/>
</g>
<g id="faces" display="none">
	<g id="smirk">
		<rect x="115" y="235" display="inline" fill="#998675" width="40" height="20"/>
		<polygon display="inline" fill="#736357" points="140,240 140,245 120,245 120,250 145,250 145,245 145,240 		"/>
	</g>
	<g id="smile">
		<rect x="115" y="235" display="inline" fill="#998675" width="40" height="20"/>
		<rect x="120" y="240" display="inline" fill="#736357" width="5" height="5"/>
		<rect x="140" y="240" display="inline" fill="#736357" width="5" height="5"/>
		<rect x="125" y="245" display="inline" fill="#736357" width="15" height="5"/>
	</g>
	<g id="frown">
		<rect x="115" y="235" display="inline" fill="#998675" width="40" height="20"/>
		<polygon display="inline" fill="#736357" points="125,250 125,245 145,245 145,240 120,240 120,245 120,250 		"/>
	</g>
	<g id="surprised">
		<rect x="115" y="240" display="inline" fill="#998675" width="40" height="15"/>
		<rect x="125" y="240" display="inline" fill="#736357" width="15" height="10"/>
		<rect x="145" y="180" display="inline" fill="#3A3632" width="25" height="5"/>
		<rect x="145" y="190" display="inline" fill="#998675" width="25" height="5"/>
		<polygon display="inline" fill="#3A3632" points="170,180 145,180 145,185 170,185 170,190 175,190 175,180 		"/>
		<polygon display="inline" fill="#3A3632" points="115,180 100,180 95,180 95,185 95,190 100,190 100,185 115,185 		"/>
		<rect x="100" y="190" display="inline" fill="#998675" width="20" height="5"/>
	</g>
	<g id="right_up">
		<rect x="145" y="190" display="inline" fill="#998675" width="25" height="5"/>
		<polygon display="inline" fill="#3A3632" points="170,180 145,180 145,185 170,185 170,190 175,190 175,180 		"/>
		<rect x="115" y="235" display="inline" fill="#998675" width="40" height="20"/>
		<polygon display="inline" fill="#736357" points="140,240 140,245 120,245 120,250 145,250 145,245 145,240 		"/>
	</g>
	<g id="left_up">
		<rect x="115" y="235" display="inline" fill="#998675" width="40" height="20"/>
		<polygon display="inline" fill="#3A3632" points="115,180 95,180 95,185 115,185 115,190 120,190 120,180 		"/>
		<rect x="100" y="190" display="inline" fill="#998675" width="20" height="5"/>
		<polygon display="inline" fill="#736357" points="125,245 125,240 120,240 120,250 125,250 145,250 145,245 		"/>
	</g>
	<g id="tongue">
		<rect x="115" y="235" display="inline" fill="#998675" width="40" height="20"/>
		<polygon display="inline" fill="#736357" points="145,240 125,240 120,240 120,245 120,250 150,250 150,245 150,240 		"/>
		<g display="inline">
			<polygon fill="#CC667E" points="125,245 125,250 125,255 125,260 140,260 140,255 145,255 145,250 145,245 			"/>
			<polygon fill="#993F55" points="140,245 130,245 130,255 135,255 135,250 140,250 			"/>
		</g>
	</g>
	<g id="drool">
		<polygon display="inline" fill="#D3E9F4" points="135,250 135,260 140,260 140,265 145,265 145,260 145,250 		"/>
	</g>
</g>
<g id="glasses_1_">
	<g id="standard">
		<g>
			<rect x="95" y="200" fill="#D3E9F4" width="30" height="20"/>
		</g>
		<g>
			<rect x="140" y="200" fill="#D3E9F4" width="35" height="20"/>
		</g>
		<rect x="95" y="195" width="110" height="5"/>
	</g>
	<g id="_x33_d" display="none">
		<polygon display="inline" fill="#E6E6E6" points="135,195 130,195 125,195 120,195 90,195 90,220 120,220 120,215 125,215 
			125,210 130,210 130,215 135,215 135,220 175,220 175,195 		"/>
		<polygon display="inline" fill="#B3B3B3" points="200,195 195,195 190,195 185,195 175,195 175,220 185,220 185,215 190,215 
			190,205 195,205 200,205 200,200 210,200 210,195 		"/>
		<rect x="95" y="200" display="inline" fill="#3FA9F5" width="20" height="15"/>
		<rect x="140" y="200" display="inline" fill="#FF1D25" width="25" height="15"/>
	</g>
</g>
<g id="hats">
	<g id="construction" display="none">
		<polygon display="inline" fill="#FCEE21" points="210,180 210,175 210,165 205,165 205,160 205,150 200,150 200,145 200,140 
			195,140 195,135 190,135 190,130 185,130 180,130 180,125 175,125 165,125 165,120 130,120 130,125 120,125 120,130 115,130 
			110,130 110,135 105,135 105,140 100,140 100,145 100,150 95,150 95,155 95,160 95,165 90,165 90,170 90,175 90,180 90,190 
			210,190 215,190 215,180 		"/>
		<polygon display="inline" fill="#CCAF23" points="140,115 140,120 135,120 135,125 130,125 130,130 130,135 130,140 125,140 
			125,145 125,160 120,160 120,175 115,175 115,190 120,190 135,190 135,175 135,160 135,145 140,145 140,140 140,135 140,130 
			145,130 145,125 145,120 150,120 150,115 		"/>
		<rect x="70" y="180" display="inline" fill="#B29C1D" width="110" height="10"/>
		<rect x="120" y="210" display="inline" fill="#998675" width="5" height="5"/>
		<g display="inline">
			<rect x="180" y="190" fill="#666666" width="35" height="10"/>
			<polygon fill="#B3FFFD" points="135,190 120,190 90,190 90,215 95,215 95,220 120,220 120,215 125,215 125,210 130,210 130,215 
				135,215 135,220 175,220 175,215 180,215 180,190 			"/>
			<rect x="95" y="190" fill="#FFFFFF" width="5" height="5"/>
			<rect x="138" y="190" fill="#FFFFFF" width="5" height="5"/>
		</g>
	</g>
	<g id="empty-head" display="none">
		<rect x="100" y="140" display="inline" fill="#FFFFFF" width="100" height="25"/>
		<polygon display="inline" points="47,95 47,90 52,90 52,100 47,100 42,100 42,95 		"/>
		<polygon display="inline" fill="#998675" points="220,80 220,75 215,75 215,70 205,70 205,65 200,65 200,165 205,165 205,160 
			215,160 215,150 220,150 220,145 225,145 225,80 		"/>
		<g display="inline">
			<polygon fill="#C1272D" points="170,165 170,175 180,175 180,180 190,180 190,190 200,190 200,180 200,175 200,165 			"/>
			<rect x="195" y="195" fill="#C1272D" width="5" height="5"/>
		</g>
		<g display="inline">
			<polygon fill="#E6E6E6" points="165,150 165,140 165,135 161,135 160,135 160,125 155,125 155,120 150,120 150,115 145,115 
				145,110 140,110 135,110 135,105 130,105 130,100 110,100 110,105 125,105 125,110 110,110 110,115 105,115 105,120 100,120 
				100,135 100,140 105,140 105,145 125,145 125,140 110,140 110,135 105,135 105,125 110,125 110,120 115,120 115,115 135,115 
				135,125 130,125 130,135 125,135 125,140 135,140 135,135 135,130 140,130 140,120 145,120 145,125 150,125 150,130 155,130 
				155,135 155,140 160,140 160,150 160,155 165,155 165,160 165,165 170,165 170,160 170,155 170,150 			"/>
			<rect x="100" y="105" fill="#E6E6E6" width="10" height="5"/>
			<polygon fill="#E6E6E6" points="90,115 80,115 80,120 75,120 75,115 65,115 65,110 60,110 60,105 55,105 55,100 50,100 50,110 
				55,110 55,115 60,115 60,120 65,120 70,120 70,125 85,125 85,120 95,120 95,115 100,115 100,110 90,110 			"/>
		</g>
		<polygon display="inline" fill="#C1272D" points="105,165 100,165 100,180 105,180 105,170 110,170 110,165 		"/>
	</g>
	<g id="surprise" display="none">
		<rect x="90" y="80" display="inline" fill="#D8B3FF" width="90" height="90"/>
		<rect x="180" y="80" display="inline" fill="#957FB2" width="15" height="90"/>
		<rect x="195" y="80" display="inline" fill="#462166" width="10" height="90"/>
		<polygon display="inline" fill="#662D91" points="150,65 150,60 135,60 135,65 130,65 130,70 130,75 135,75 135,80 150,80 150,75 
			155,75 155,70 155,65 		"/>
		<g display="inline">
			<polygon fill="#462166" points="180,65 180,70 170,70 170,75 160,75 160,70 155,70 155,75 150,75 150,80 180,80 180,75 185,75 
				185,70 185,65 			"/>
			<rect x="165" y="60" fill="#462166" width="15" height="5"/>
			<rect x="160" y="65" fill="#462166" width="5" height="5"/>
		</g>
		<g display="inline">
			<polygon fill="#462166" points="130,75 130,70 125,70 125,75 115,75 115,70 110,70 110,65 105,65 105,70 105,75 110,75 110,80 
				135,80 135,75 			"/>
			<rect x="110" y="60" fill="#462166" width="10" height="5"/>
			<rect x="120" y="65" fill="#462166" width="5" height="5"/>
		</g>
		<rect x="125" y="80" display="inline" fill="#662D91" width="15" height="90"/>
		<polygon display="inline" fill="#957FB2" points="210,85 210,80 205,80 205,170 210,170 210,165 215,165 215,85 		"/>
	</g>
	<g id="silly" display="none">
		<polygon display="inline" fill="#C1272D" points="125,115 125,120 115,120 115,125 110,125 110,130 110,135 105,135 105,140 
			105,145 100,145 100,150 100,155 95,155 95,160 95,165 95,170 95,175 95,180 125,180 125,175 125,170 125,165 125,160 125,155 
			130,155 130,150 130,145 135,145 135,140 135,135 140,135 140,130 140,125 145,125 145,120 145,115 		"/>
		<rect x="145" y="100" display="inline" fill="#B3B3B3" width="5" height="15"/>
		<polygon display="inline" fill="#39B54A" points="170,155 170,150 170,145 165,145 165,140 165,135 160,135 160,130 160,125 
			155,125 155,120 155,115 145,115 145,120 145,125 140,125 140,130 140,135 135,135 135,140 135,145 130,145 130,150 130,155 
			125,155 125,160 125,165 125,170 125,175 125,180 175,180 175,175 175,170 175,165 175,160 175,155 		"/>
		<polygon display="inline" fill="#F7931E" points="200,155 200,150 195,150 195,145 195,140 190,140 190,135 190,130 185,130 
			185,125 175,125 175,120 165,120 165,115 155,115 155,120 155,125 160,125 160,130 160,135 165,135 165,140 165,145 170,145 
			170,150 170,155 175,155 175,160 175,165 175,170 205,170 205,165 205,160 205,155 		"/>
		<polygon display="inline" fill="#C1272D" points="140,85 140,90 140,95 145,95 145,100 150,100 150,95 155,95 155,90 155,85 		"/>
		<polygon display="inline" fill="#0071BC" points="150,100 150,105 165,105 165,110 175,110 175,115 200,115 200,110 205,110 
			205,105 210,105 210,100 		"/>
		<polygon display="inline" fill="#0071BC" points="130,100 130,95 115,95 115,90 105,90 105,95 100,95 100,100 95,100 95,105 
			145,105 145,100 		"/>
		<polygon display="inline" fill="#00527F" points="175,170 175,175 175,180 240,180 240,170 		"/>
	</g>
	<g id="swiss-army" display="none">
		<g display="inline">
			<g>
				<rect x="195" y="130" fill="#999999" width="5" height="15"/>
				<polygon fill="#999999" points="210,120 210,115 205,115 205,125 210,125 210,135 215,135 215,120 				"/>
				<rect x="225" y="105" fill="#666666" width="10" height="5"/>
				<rect x="210" y="115" fill="#666666" width="15" height="5"/>
				<rect x="200" y="130" fill="#666666" width="10" height="5"/>
				<polygon fill="#999999" points="255,65 255,70 250,70 250,75 245,75 245,80 240,80 240,85 235,85 235,110 240,110 240,90 
					250,90 250,95 255,95 255,90 260,90 260,85 260,80 260,75 260,70 260,65 				"/>
				<polygon fill="#999999" points="225,110 225,105 220,105 220,110 220,115 225,115 225,120 230,120 230,110 				"/>
			</g>
			<g>
				<rect x="160" y="65" fill="#666666" width="5" height="30"/>
				<polygon fill="#999999" points="175,85 175,80 175,75 175,70 180,70 180,65 185,65 185,60 190,60 190,55 195,55 195,50 200,50 
					200,45 180,45 180,50 170,50 170,55 165,55 165,60 165,65 165,70 165,75 165,80 165,85 165,90 165,95 160,95 160,100 160,105 
					160,110 160,115 160,120 160,125 185,125 185,120 190,120 190,115 195,115 195,110 200,110 200,105 200,100 200,95 200,90 
					200,85 195,85 195,80 190,80 190,85 190,90 190,95 190,100 180,100 180,95 175,95 175,90 				"/>
			</g>
			<g>
				<g>
					<polygon fill="#666666" points="130,115 130,110 120,110 120,105 110,105 110,110 115,110 115,115 125,115 125,120 135,120 
						135,125 140,125 140,120 140,115 					"/>
					<rect x="105" y="100" fill="#666666" width="5" height="5"/>
					<polygon fill="#666666" points="75,85 65,85 65,80 55,80 55,75 45,75 45,80 50,80 50,85 55,85 55,90 65,90 65,95 70,95 70,100 
						80,100 80,105 85,105 85,100 85,95 85,90 75,90 					"/>
					<rect x="95" y="105" fill="#666666" width="5" height="5"/>
				</g>
				<path fill="#999999" d="M105,105v-5v-5h-5v-5h-5v-5h-5v-5v-5h-5v-5h-5v-5h-5v-5v-5H65v5h5v5v5h5v5h5v5v5h5v5v5v5v5h5v5v5h5v5v5
					v5v5v10h10v-10v-5h5v-5h-5v-5v-5h5v-5v-5H105z M95,110v-5h5v5H95z"/>
			</g>
			<g>
				<rect x="125" y="25" fill="#666666" width="5" height="25"/>
				<rect x="135" y="95" fill="#666666" width="10" height="5"/>
				<polygon fill="#999999" points="145,20 145,15 145,10 145,5 140,5 140,0 135,0 135,5 130,5 130,10 130,15 130,20 125,20 125,25 
					130,25 130,30 130,35 130,40 130,45 130,50 125,50 125,55 125,60 125,65 125,70 125,75 125,80 125,85 130,85 130,90 130,95 
					130,100 130,105 130,110 130,115 130,120 150,120 150,115 150,110 150,105 150,100 135,100 135,95 150,95 150,90 150,85 150,80 
					150,75 150,70 150,65 150,60 150,55 150,50 150,45 150,40 150,35 150,30 150,25 150,20 				"/>
			</g>
			<g>
				<polygon fill="#C1272D" points="205,160 205,145 200,145 200,140 195,140 195,130 185,130 185,125 180,125 180,120 170,120 
					170,115 120,115 120,120 115,120 115,125 110,125 110,130 105,130 105,140 100,140 100,145 95,145 95,160 90,160 90,185 
					210,185 210,160 				"/>
				<polygon fill="#992029" points="90,160 90,165 90,185 95,185 95,165 100,165 100,185 105,185 105,165 110,165 110,185 115,185 
					115,165 120,165 120,185 125,185 125,165 130,165 130,185 135,185 135,165 140,165 140,185 145,185 145,165 150,165 150,185 
					155,185 155,165 160,165 160,185 165,185 165,165 170,165 170,185 175,185 175,165 180,165 180,185 185,185 185,165 190,165 
					190,185 195,185 195,165 200,165 200,185 205,185 205,165 210,165 210,160 				"/>
				<polygon fill="#FFFFFF" points="140,140 135,140 135,135 130,135 130,140 125,140 125,145 130,145 130,150 135,150 135,145 
					140,145 				"/>
			</g>
		</g>
	</g>
	<g id="dunce" display="none">
		<g display="inline">
			<g>
				<polygon fill="#E6E6E6" points="175,30 170,30 170,35 170,40 165,40 165,45 165,50 160,50 160,55 160,60 155,60 155,65 155,70 
					150,70 150,75 150,80 145,80 145,85 140,85 140,90 140,95 135,95 135,100 135,105 130,105 130,110 130,115 125,115 125,120 
					125,125 120,125 120,130 120,135 115,135 115,140 115,145 110,145 110,150 105,150 105,155 105,160 100,160 100,165 100,170 
					95,170 95,175 95,180 90,180 90,185 90,190 85,190 85,195 80,195 80,200 80,205 85,205 85,200 130,200 130,195 135,195 135,190 
					135,185 135,180 135,175 140,175 140,170 140,165 140,160 145,160 145,155 145,150 145,145 145,140 150,140 150,135 150,130 
					150,125 155,125 155,120 155,115 155,110 160,110 160,105 160,100 160,95 160,90 165,90 165,85 165,80 165,75 170,75 170,70 
					170,65 170,60 175,60 175,55 175,50 175,45 175,40 180,40 180,35 180,30 180,25 175,25 				"/>
				<polygon fill="#E6E6E6" points="180,15 180,20 180,25 185,25 185,20 185,15 				"/>
				<rect x="85" y="205" fill="#E6E6E6" width="5" height="5"/>
				<rect x="90" y="210" fill="#E6E6E6" width="5" height="5"/>
			</g>
			<polygon fill="#292623" points="85,200 85,205 90,205 90,210 95,210 95,205 95,200 			"/>
		</g>
		<g display="inline">
			<polygon fill="#CCCCCC" points="205,150 205,145 205,140 205,135 205,130 205,125 205,120 205,115 205,110 200,110 200,105 
				200,100 200,95 200,90 200,85 200,80 200,75 200,70 200,65 195,65 195,60 195,55 195,50 195,45 195,40 195,35 195,30 195,25 
				190,25 190,20 190,15 190,10 185,10 185,15 185,20 185,25 180,25 180,30 180,35 180,40 175,40 175,45 175,50 175,55 175,60 
				170,60 170,65 170,70 170,75 165,75 165,80 165,85 165,90 160,90 160,95 160,100 160,105 160,110 155,110 155,115 155,120 
				155,125 150,125 150,130 150,135 150,140 145,140 145,145 145,150 145,155 145,160 140,160 140,165 140,170 140,175 135,175 
				135,180 135,185 135,190 135,195 130,195 130,200 135,200 135,205 165,205 165,210 190,210 190,215 200,215 200,220 205,220 
				205,225 205,230 210,230 210,225 210,195 210,190 210,185 210,180 210,175 210,170 210,165 210,160 210,155 210,150 			"/>
			<rect x="200" y="230" fill="#CCCCCC" width="5" height="5"/>
			<rect x="200" y="225" fill="#CCCCCC" width="5" height="5"/>
		</g>
		<g display="inline">
			<polygon points="155,150 155,145 145,145 145,150 150,150 150,155 155,155 155,160 155,165 150,165 150,170 150,175 145,175 
				145,180 155,180 155,175 155,170 160,170 160,165 160,160 160,155 160,150 			"/>
			<rect x="135" y="140" width="10" height="5"/>
			<rect x="130" y="145" width="5" height="15"/>
			<polygon points="130,175 130,160 125,160 125,170 120,170 120,180 125,180 125,185 145,185 145,180 130,180 			"/>
		</g>
		<g display="inline">
			<rect x="95" y="200" fill="#90A6AD" width="30" height="5"/>
			<rect x="125" y="205" fill="#514640" width="5" height="5"/>
			<polygon fill="#90A6AD" points="165,210 165,205 140,205 140,210 160,210 160,215 175,215 175,210 			"/>
			<polygon fill="#665C56" points="190,215 190,210 175,210 175,215 185,215 185,220 200,220 200,215 			"/>
			<polygon fill="#665C56" points="135,205 135,200 125,200 125,205 130,205 130,210 140,210 140,205 			"/>
			<rect x="195" y="220" fill="#292623" width="5" height="5"/>
			<rect x="200" y="220" fill="#665C56" width="5" height="5"/>
		</g>
	</g>
	<g id="batman" display="none">
		<g display="inline">
			<polygon fill="#FFF066" points="295,50 295,45 295,40 295,35 290,35 290,30 285,30 285,25 285,20 280,20 280,15 270,15 270,10 
				265,10 265,5 250,5 250,0 215,0 215,5 200,5 200,10 195,10 195,15 185,15 185,20 180,20 180,25 180,30 175,30 175,35 170,35 
				170,40 170,45 170,50 165,50 165,55 165,60 165,65 165,70 165,75 165,80 165,85 165,90 170,90 170,95 170,100 170,105 175,105 
				175,110 180,110 180,115 180,120 185,120 185,125 195,125 195,130 200,130 200,135 215,135 215,140 250,140 250,135 265,135 
				265,130 270,130 270,125 280,125 280,120 285,120 285,115 285,110 290,110 290,105 295,105 295,100 295,95 295,90 300,90 300,85 
				300,80 300,75 300,70 300,65 300,60 300,55 300,50 			"/>
			<polygon fill="#484848" points="240,75 260,75 260,70 255,70 255,65 250,65 250,60 245,60 245,55 240,55 240,50 235,50 235,45 
				230,45 230,40 225,40 225,35 220,35 220,30 215,30 215,35 215,40 215,45 215,50 215,55 215,60 215,65 215,70 215,75 215,80 
				215,85 215,90 220,90 220,85 225,85 225,80 230,80 230,85 235,85 235,90 235,95 240,95 240,100 240,105 250,105 250,100 250,95 
				245,95 245,90 245,85 240,85 240,80 			"/>
			<g>
				<polygon fill="#FFF8B3" points="175,105 170,105 170,90 165,90 165,55 160,55 160,65 155,65 155,75 150,75 150,85 145,85 
					145,95 140,95 140,105 135,105 135,115 130,115 130,130 135,130 140,130 145,130 150,130 150,135 155,135 160,135 160,140 
					165,140 170,140 170,135 175,135 175,120 180,120 180,110 175,110 				"/>
				<polygon fill="#FFF8B3" points="255,135 250,135 250,140 245,140 240,140 235,140 230,140 225,140 220,140 215,140 215,135 
					210,135 205,135 200,135 200,185 205,185 205,180 210,180 210,175 215,175 215,170 220,170 225,170 225,165 230,165 230,160 
					235,160 235,155 240,155 245,155 245,150 250,150 250,145 255,145 255,140 260,140 265,140 265,135 260,135 				"/>
				<rect x="265" y="130" fill="#FFF8B3" width="5" height="5"/>
				<rect x="270" y="125" fill="#FFF8B3" width="5" height="5"/>
				<polygon fill="#FFF8B3" points="95,200 90,200 90,210 85,210 85,220 80,220 80,230 75,230 75,240 70,240 70,250 65,250 65,265 
					60,265 60,275 55,275 55,285 50,285 50,295 55,295 55,290 60,290 60,285 65,285 70,285 70,280 75,280 75,275 80,275 80,270 
					85,270 90,270 90,265 95,265 95,260 100,260 100,215 95,215 				"/>
				<rect x="45" y="295" fill="#FFF8B3" width="5" height="5"/>
			</g>
		</g>
		<polygon display="inline" fill="#303030" points="220,295 220,290 215,290 215,280 210,280 210,270 205,270 205,265 200,265 
			200,210 200,160 200,90 195,90 195,95 190,95 190,100 185,100 185,110 180,110 180,120 175,120 175,135 170,135 170,140 160,140 
			160,135 150,135 150,130 125,130 125,90 120,90 120,99 115,99 115,115 110,115 110,125 105,125 105,140 100,140 100,210 100,215 
			100,220 110,220 110,225 120,225 120,230 125,230 125,235 135,235 135,230 145,230 145,225 160,225 160,220 170,220 170,215 
			175,215 175,260 170,260 170,265 160,265 160,270 150,270 150,275 115,275 115,270 110,270 110,260 105,260 105,255 100,255 
			100,265 95,265 95,270 90,270 90,280 85,280 85,285 80,285 80,295 75,295 75,300 80,300 85,300 90,300 95,300 100,300 105,300 
			110,300 115,300 150,300 160,300 170,300 175,300 225,300 225,295 		"/>
		<rect x="110" y="255" display="inline" fill="#998675" width="50" height="10"/>
		<rect x="115" y="265" display="inline" fill="#998675" width="35" height="5"/>
		<g display="inline">
			<g>
				<polygon fill="#998675" points="170,215 170,220 160,220 160,225 145,225 145,230 160,230 160,240 170,240 170,260 175,260 
					175,215 				"/>
				<polygon fill="#998675" points="120,225 110,225 110,220 100,220 100,240 110,240 110,230 120,230 				"/>
				<rect x="115" y="235" fill="#998675" width="40" height="20"/>
			</g>
			<rect x="120" y="245" fill="#3A3632" width="25" height="5"/>
			<path fill="#736357" d="M160,240v-5v-5h-50v5v5h-10v15h5v5v5h5v5h5v5h35v-5h10v-5h10v-5h5v-5v-15H160z M155,235v20h-40v-20H155z"
				/>
		</g>
		<g display="inline">
			<rect x="95" y="200" fill="#D3E9F4" width="30" height="20"/>
			<rect x="140" y="200" fill="#D3E9F4" width="35" height="20"/>
			<rect x="95" y="195" fill="#666666" width="110" height="5"/>
		</g>
		<g display="inline">
			<polygon fill="#484848" points="130,225 130,205 125,205 125,225 120,225 120,230 125,230 125,235 135,235 135,230 140,230 
				140,225 			"/>
			<polygon fill="#484848" points="195,295 195,290 190,290 190,280 185,280 185,270 180,270 180,265 175,265 175,270 170,270 
				170,280 165,280 165,285 160,285 160,295 150,295 150,300 200,300 200,295 			"/>
			<polygon fill="#484848" points="115,295 115,285 110,285 110,275 105,275 105,270 100,270 100,290 95,290 95,296 90,296 90,300 
				120,300 120,295 			"/>
			<polygon fill="#484848" points="165,140 160,140 160,135 150,135 150,130 125,130 125,135 120,135 120,139 115,139 115,145 
				110,145 110,150 105,150 105,155 100,155 100,165 105,165 105,160 110,160 110,155 115,155 120,155 120,150 125,150 130,150 
				145,150 145,155 150,155 155,155 155,160 160,160 165,160 165,155 170,155 170,150 170,145 170,140 			"/>
		</g>
		<g display="inline">
			<polygon fill="#998675" points="195,200 195,225 200,225 205,225 205,220 210,220 210,200 			"/>
			<polygon fill="#736357" points="200,205 195,205 195,215 200,215 200,210 205,210 205,205 			"/>
		</g>
	</g>
	<g id="bridge" display="none">
		<polygon display="inline" fill="#9E0066" points="185,50 160,50 160,45 155,45 155,5 185,5 		"/>
		<rect x="100" y="135" display="inline" fill="#FFFFFF" width="100" height="30"/>
		<g display="inline">
			<g>
				<g>
					<polygon fill="#243033" points="195,75 195,70 190,70 190,80 195,80 195,85 200,85 200,75 					"/>
					<polygon fill="#243033" points="205,90 205,85 200,85 200,95 205,95 205,100 210,100 210,90 					"/>
					<polygon fill="#243033" points="215,105 215,100 210,100 210,110 215,110 215,115 220,115 220,105 					"/>
					<polygon fill="#243033" points="225,120 225,115 220,115 220,125 225,125 225,130 230,130 230,120 					"/>
					<polygon fill="#243033" points="235,135 235,130 230,130 230,140 235,140 235,145 240,145 240,135 					"/>
					<polygon fill="#243033" points="245,150 245,145 240,145 240,155 245,155 245,160 250,160 250,150 					"/>
					<rect x="250" y="160" fill="#243033" width="5" height="5"/>
				</g>
				<g>
					<polygon fill="#243033" points="165,75 165,70 160,70 160,80 165,80 165,85 170,85 170,75 					"/>
					<polygon fill="#243033" points="175,90 175,85 170,85 170,95 175,95 175,100 180,100 180,90 					"/>
					<polygon fill="#243033" points="185,105 185,100 180,100 180,110 185,110 185,115 190,115 190,105 					"/>
					<polygon fill="#243033" points="195,120 195,115 190,115 190,125 195,125 195,130 200,130 200,120 					"/>
					<polygon fill="#243033" points="205,135 205,130 200,130 200,140 205,140 205,145 210,145 210,135 					"/>
					<polygon fill="#243033" points="215,150 215,145 210,145 210,155 215,155 215,160 220,160 220,150 					"/>
					<rect x="220" y="160" fill="#243033" width="5" height="5"/>
				</g>
				<g>
					<polygon fill="#243033" points="125,75 125,70 120,70 120,80 125,80 125,85 130,85 130,75 					"/>
					<polygon fill="#243033" points="135,90 135,85 130,85 130,95 135,95 135,100 140,100 140,90 					"/>
					<polygon fill="#243033" points="145,105 145,100 140,100 140,110 145,110 145,115 150,115 150,105 					"/>
					<polygon fill="#243033" points="155,120 155,115 150,115 150,125 155,125 155,130 160,130 160,120 					"/>
					<polygon fill="#243033" points="165,135 165,130 160,130 160,140 165,140 165,145 170,145 170,135 					"/>
					<polygon fill="#243033" points="175,150 175,145 170,145 170,155 175,155 175,160 180,160 180,150 					"/>
					<polygon fill="#243033" points="185,165 185,160 180,160 180,170 185,170 185,175 190,175 190,165 					"/>
				</g>
			</g>
			<polygon fill="#B2AAA1" points="165,55 165,60 150,60 150,55 125,55 125,60 115,60 115,55 95,55 95,60 100,60 100,175 110,175 
				110,95 115,95 115,85 120,85 125,85 125,95 130,95 130,175 145,175 145,95 150,95 150,85 165,85 165,95 170,95 170,175 190,175 
				190,60 195,60 195,55 			"/>
			<polygon fill="#66625D" points="195,55 195,60 190,60 190,175 200,175 200,60 205,60 205,55 			"/>
			<polygon fill="#66625D" points="150,85 150,95 145,95 145,170 150,170 150,100 155,100 155,85 			"/>
			<polygon fill="#66625D" points="115,85 115,95 110,95 110,170 115,170 115,100 120,100 120,85 			"/>
			<g>
				<g>
					<polygon fill="#485E66" points="105,70 105,75 100,75 100,85 105,85 105,80 110,80 110,70 					"/>
					<polygon fill="#485E66" points="95,90 90,90 90,100 95,100 95,95 100,95 100,85 95,85 					"/>
					<polygon fill="#485E66" points="85,105 80,105 80,115 85,115 85,110 90,110 90,100 85,100 					"/>
					<polygon fill="#485E66" points="75,120 70,120 70,130 75,130 75,125 80,125 80,115 75,115 					"/>
					<polygon fill="#485E66" points="65,135 60,135 60,145 65,145 65,140 70,140 70,130 65,130 					"/>
					<polygon fill="#485E66" points="55,150 50,150 50,160 55,160 55,155 60,155 60,145 55,145 					"/>
					<rect x="45" y="160" fill="#485E66" width="5" height="5"/>
				</g>
				<g>
					<polygon fill="#485E66" points="135,70 135,75 130,75 130,85 135,85 135,80 140,80 140,70 					"/>
					<polygon fill="#485E66" points="125,90 120,90 120,100 125,100 125,95 130,95 130,85 125,85 					"/>
					<polygon fill="#485E66" points="115,105 110,105 110,115 115,115 115,110 120,110 120,100 115,100 					"/>
					<polygon fill="#485E66" points="105,120 100,120 100,130 105,130 105,125 110,125 110,115 105,115 					"/>
					<polygon fill="#485E66" points="95,135 90,135 90,145 95,145 95,140 100,140 100,130 95,130 					"/>
					<polygon fill="#485E66" points="85,150 80,150 80,160 85,160 85,155 90,155 90,145 85,145 					"/>
					<rect x="75" y="160" fill="#485E66" width="5" height="5"/>
				</g>
				<g>
					<polygon fill="#485E66" points="175,70 175,75 170,75 170,85 175,85 175,80 180,80 180,70 					"/>
					<polygon fill="#485E66" points="165,90 160,90 160,100 165,100 165,95 170,95 170,85 165,85 					"/>
					<polygon fill="#485E66" points="155,105 150,105 150,115 155,115 155,110 160,110 160,100 155,100 					"/>
					<polygon fill="#485E66" points="145,120 140,120 140,130 145,130 145,125 150,125 150,115 145,115 					"/>
					<polygon fill="#485E66" points="135,135 130,135 130,145 135,145 135,140 140,140 140,130 135,130 					"/>
					<polygon fill="#485E66" points="125,150 120,150 120,160 125,160 125,155 130,155 130,145 125,145 					"/>
					<rect x="115" y="160" fill="#485E66" width="5" height="5"/>
				</g>
			</g>
			<rect x="30" y="165" fill="#B2AAA1" width="130" height="10"/>
			<rect x="160" y="165" fill="#66625D" width="110" height="10"/>
			<rect x="150" y="55" fill="#66625D" width="5" height="5"/>
		</g>
		<rect x="145" display="inline" fill="#EC008C" width="20" height="40"/>
		<rect x="135" display="inline" fill="#CCCCCC" width="5" height="55"/>
		<rect x="140" y="10" display="inline" fill="#EC008C" width="5" height="35"/>
		<rect x="180" y="40" display="inline" fill="#EC008C" width="5" height="5"/>
		<rect x="160" y="10" display="inline" fill="#FFFFFF" width="5" height="25"/>
		<polygon display="inline" fill="#CCCCCC" points="170,15 170,25 165,25 165,30 170,30 170,40 175,40 175,15 		"/>
		<polygon display="inline" fill="#EC008C" points="195,10 180,10 180,50 195,50 195,45 200,45 200,15 195,15 		"/>
		<rect x="120" y="80" display="inline" fill="#66625D" width="5" height="5"/>
		<rect x="155" y="80" display="inline" fill="#66625D" width="5" height="5"/>
	</g>
	<g id="hi" display="none">
		<rect x="85" y="35" display="inline" width="140" height="95"/>
		<rect x="90" y="40" display="inline" fill="#272822" width="130" height="85"/>
		<g display="inline">
			<g>
				<rect x="115" y="85" fill="#716D5C" width="5" height="5"/>
				<rect x="120" y="80" fill="#716D5C" width="5" height="5"/>
				<rect x="125" y="75" fill="#716D5C" width="5" height="5"/>
				<rect x="120" y="90" fill="#716D5C" width="5" height="5"/>
				<rect x="125" y="95" fill="#716D5C" width="5" height="5"/>
			</g>
			<g>
				<rect x="190" y="85" fill="#716D5C" width="5" height="5"/>
				<rect x="185" y="90" fill="#716D5C" width="5" height="5"/>
				<rect x="180" y="95" fill="#716D5C" width="5" height="5"/>
				<rect x="185" y="80" fill="#716D5C" width="5" height="5"/>
				<rect x="180" y="75" fill="#716D5C" width="5" height="5"/>
			</g>
			<g>
				<polygon fill="#F9275D" points="140,80 140,70 135,70 135,100 140,100 140,85 150,85 150,80 				"/>
				<rect x="150" y="85" fill="#F9275D" width="5" height="15"/>
			</g>
			<polygon fill="#F9275D" points="170,95 170,70 165,70 165,75 160,75 160,80 165,80 165,95 160,95 160,100 175,100 175,95 			"/>
		</g>
		<rect x="45" y="130" display="inline" fill="#E6E6E6" width="135" height="5"/>
		<rect x="50" y="135" display="inline" fill="#E6E6E6" width="125" height="5"/>
		<polygon display="inline" fill="#808080" points="180,130 180,135 175,135 175,140 220,140 220,135 225,135 225,130 		"/>
		<rect x="100" y="130" display="inline" fill="#999999" width="25" height="5"/>
		<g display="inline">
			<rect x="115" y="235" fill="#998675" width="40" height="20"/>
			<rect x="120" y="240" fill="#736357" width="5" height="5"/>
			<rect x="140" y="240" fill="#736357" width="5" height="5"/>
			<rect x="125" y="245" fill="#736357" width="15" height="5"/>
		</g>
	</g>
	<g id="balance">
		<rect x="125" y="160" fill="#997A3C" width="80" height="5"/>
		<rect x="95" y="160" fill="#665029" width="30" height="5"/>
		<g>
			<path fill="#CCA250" d="M95,10V5H80v15h15v-5h35v-5H95z M90,15h-5v-5h5V15z"/>
			<rect x="130" y="110" fill="#FACB5F" width="20" height="20"/>
			<rect x="140" y="30" fill="#FACB5F" width="5" height="75"/>
			<path fill="#FACB5F" d="M195,5v5h-45v5h45v5h15V5H195z M205,15h-5v-5h5V15z"/>
			<g>
				<polygon fill="#050490" points="125,75 80,75 80,70 75,70 75,65 70,65 70,60 65,60 65,100 70,100 70,95 75,95 75,90 80,90 
					80,85 125,85 				"/>
				<rect x="25" y="60" fill="#534741" width="25" height="40"/>
				<polygon fill="#E6E6E6" points="60,60 55,60 50,60 50,100 55,100 60,100 65,100 65,60 				"/>
				<rect x="20" y="60" fill="#998F8A" width="5" height="40"/>
			</g>
			<g>
				<rect x="240" y="55" fill="#999999" width="25" height="50"/>
				<rect x="240" y="105" fill="#666666" width="25" height="5"/>
				<rect x="240" y="50" fill="#666666" width="25" height="5"/>
				<rect x="270" y="70" fill="#666666" width="5" height="20"/>
				<g>
					<rect x="225" y="75" fill="#A67C52" width="5" height="10"/>
					<rect x="215" y="75" fill="#A67C52" width="5" height="10"/>
					<rect x="205" y="75" fill="#A67C52" width="5" height="10"/>
					<rect x="195" y="75" fill="#A67C52" width="5" height="10"/>
					<rect x="185" y="75" fill="#A67C52" width="5" height="10"/>
					<rect x="175" y="75" fill="#A67C52" width="5" height="10"/>
					<rect x="165" y="75" fill="#A67C52" width="5" height="10"/>
				</g>
				<g>
					<rect x="220" y="75" fill="#754C24" width="5" height="10"/>
					<rect x="230" y="75" fill="#754C24" width="5" height="10"/>
					<rect x="210" y="75" fill="#754C24" width="5" height="10"/>
					<rect x="200" y="75" fill="#754C24" width="5" height="10"/>
					<rect x="190" y="75" fill="#754C24" width="5" height="10"/>
					<rect x="180" y="75" fill="#754C24" width="5" height="10"/>
					<rect x="170" y="75" fill="#754C24" width="5" height="10"/>
					<rect x="160" y="75" fill="#754C24" width="5" height="10"/>
				</g>
			</g>
			<g>
				<rect x="95" y="25" fill="#4D4D4D" width="5" height="10"/>
				<rect x="100" y="35" fill="#4D4D4D" width="5" height="10"/>
				<rect x="105" y="45" fill="#4D4D4D" width="5" height="10"/>
				<rect x="110" y="55" fill="#4D4D4D" width="5" height="10"/>
				<rect x="80" y="20" fill="#4D4D4D" width="5" height="5"/>
				<rect x="75" y="25" fill="#4D4D4D" width="5" height="10"/>
				<rect x="70" y="35" fill="#4D4D4D" width="5" height="10"/>
				<rect x="65" y="45" fill="#4D4D4D" width="5" height="10"/>
				<rect x="115" y="65" fill="#4D4D4D" width="5" height="10"/>
				<rect x="85" y="10" fill="#4D4D4D" width="5" height="5"/>
				<rect x="90" y="15" fill="#4D4D4D" width="5" height="10"/>
				<rect x="60" y="55" fill="#4D4D4D" width="5" height="5"/>
			</g>
			<g>
				<rect x="205" y="20" fill="#4D4D4D" width="5" height="5"/>
				<rect x="210" y="25" fill="#4D4D4D" width="5" height="10"/>
				<rect x="215" y="35" fill="#4D4D4D" width="5" height="10"/>
				<rect x="220" y="45" fill="#4D4D4D" width="5" height="10"/>
				<rect x="225" y="55" fill="#4D4D4D" width="5" height="10"/>
				<rect x="230" y="65" fill="#4D4D4D" width="5" height="10"/>
				<rect x="195" y="15" fill="#4D4D4D" width="5" height="10"/>
				<rect x="190" y="25" fill="#4D4D4D" width="5" height="10"/>
				<rect x="185" y="35" fill="#4D4D4D" width="5" height="10"/>
				<rect x="180" y="45" fill="#4D4D4D" width="5" height="10"/>
				<rect x="175" y="55" fill="#4D4D4D" width="5" height="10"/>
				<rect x="170" y="65" fill="#4D4D4D" width="5" height="10"/>
				<rect x="200" y="10" fill="#4D4D4D" width="5" height="5"/>
			</g>
			<rect x="155" y="80" fill="#3F1906" width="5" height="30"/>
			<rect x="135" y="105" fill="#997A3C" width="15" height="5"/>
			<rect x="130" y="110" fill="#CCA250" width="5" height="20"/>
			<rect x="130" y="105" fill="#665029" width="5" height="5"/>
			<rect x="135" y="30" fill="#CCA250" width="5" height="75"/>
			<polygon fill="#665029" points="140,5 140,0 130,0 130,5 130,20 130,25 135,25 135,30 140,30 140,25 140,20 135,20 135,5 			"/>
			<polygon fill="#997A3C" points="140,5 140,0 150,0 150,5 150,20 150,25 145,25 145,30 140,30 140,25 140,20 145,20 145,5 			"/>
		</g>
		<rect x="135" y="130" fill="#997A3C" width="20" height="5"/>
		<rect x="125" y="130" fill="#665029" width="10" height="5"/>
		<polygon fill="#FACB5F" points="190,150 190,145 185,145 185,140 180,140 180,135 135,135 135,140 130,140 130,145 130,150 
			125,150 125,155 125,160 200,160 200,155 200,150 		"/>
		<polygon fill="#CCA250" points="115,135 115,140 110,140 110,145 105,145 105,150 100,150 100,155 100,160 125,160 125,155 
			125,150 130,150 130,145 130,140 135,140 135,135 		"/>
		<rect x="235" y="55" fill="#808080" width="5" height="50"/>
		<rect x="265" y="55" fill="#808080" width="5" height="50"/>
		<g>
			<rect x="115" y="235" fill="#998675" width="40" height="20"/>
			<polygon fill="#736357" points="140,240 140,245 120,245 120,250 145,250 145,245 145,240 			"/>
		</g>
	</g>
	<g id="gadget" display="none">
		<g display="inline">
			<g>
				<polygon fill="#C9D8DF" points="100,90 100,85 95,85 95,90 95,95 105,95 105,90 				"/>
				<polygon fill="#C9D8DF" points="115,100 115,95 105,95 105,100 110,100 110,105 120,105 120,100 				"/>
				<polygon fill="#C9D8DF" points="130,110 130,105 120,105 120,110 125,110 125,115 135,115 135,110 				"/>
			</g>
			<rect x="85" y="80" fill="#C82026" width="10" height="10"/>
			<g>
				<polygon fill="#C9D8DF" points="80,85 80,90 75,90 75,95 75,100 80,100 80,95 85,95 85,90 85,85 				"/>
				<rect x="70" y="100" fill="#C9D8DF" width="5" height="5"/>
				<polygon fill="#C9D8DF" points="65,110 60,110 60,115 60,120 65,120 65,115 70,115 70,110 70,105 65,105 				"/>
				<polygon fill="#C9D8DF" points="55,125 50,125 50,130 50,135 55,135 55,130 60,130 60,125 60,120 55,120 				"/>
			</g>
		</g>
		<g display="inline">
			<rect x="180" y="65" fill="#C9D8DF" width="35" height="5"/>
			<rect x="170" y="60" fill="#C82026" width="10" height="10"/>
			<g>
				<polygon fill="#C9D8DF" points="155,95 150,95 150,105 145,105 145,110 140,110 140,120 145,120 145,115 150,115 150,110 
					155,110 155,100 160,100 160,90 155,90 				"/>
				<rect x="160" y="80" fill="#C9D8DF" width="5" height="10"/>
				<polygon fill="#C9D8DF" points="170,70 165,70 165,80 170,80 170,75 175,75 175,70 				"/>
			</g>
		</g>
		<g display="inline">
			<polygon fill="#5A5D66" points="245,95 245,90 240,90 240,85 230,85 230,80 205,80 205,85 195,85 195,90 190,90 190,95 180,95 
				180,100 180,105 175,105 175,110 175,115 175,120 180,120 180,125 185,125 185,130 220,130 220,125 235,125 235,120 240,120 
				240,115 245,115 245,110 250,110 250,105 250,100 250,95 			"/>
			<g>
				<polygon fill="#42444C" points="220,130 190,130 190,135 225,135 225,130 235,130 235,125 220,125 				"/>
				<rect x="235" y="120" fill="#42444C" width="5" height="5"/>
				<rect x="240" y="115" fill="#42444C" width="5" height="5"/>
				<rect x="245" y="110" fill="#42444C" width="5" height="5"/>
			</g>
			<polygon fill="#C9D8DF" points="100,145 100,150 95,150 95,155 95,160 95,165 135,165 135,160 135,155 135,150 135,145 			"/>
			<polygon fill="#9AA9BB" points="195,160 195,155 195,150 195,145 135,145 135,150 135,155 135,160 135,165 200,165 200,160 			
				"/>
			<g>
				<polygon fill="#B3B8C7" points="95,170 90,170 90,175 80,175 80,180 75,180 75,185 70,185 70,190 70,195 100,195 100,190 
					110,190 110,185 125,185 125,180 130,180 130,175 130,170 130,165 95,165 				"/>
				<polygon fill="#B3B8C7" points="135,120 135,115 115,115 115,120 110,120 110,125 105,125 105,130 105,135 100,135 100,140 
					100,145 135,145 135,140 135,135 135,130 140,130 140,125 140,120 				"/>
			</g>
			<g>
				<polygon fill="#727585" points="220,185 220,180 215,180 215,175 205,175 205,170 200,170 200,165 130,165 130,170 130,175 
					130,180 125,180 125,185 160,185 160,190 195,190 195,195 205,195 205,200 225,200 225,195 225,190 225,185 				"/>
				<polygon fill="#727585" points="195,140 195,135 190,135 190,130 185,130 185,125 180,125 180,120 175,120 175,115 145,115 
					145,120 140,120 140,125 140,130 135,130 135,135 135,140 135,145 195,145 				"/>
			</g>
			<g>
				<rect x="110" y="135" fill="#42444C" width="5" height="5"/>
				<rect x="115" y="130" fill="#42444C" width="5" height="5"/>
				<rect x="120" y="125" fill="#42444C" width="5" height="5"/>
			</g>
			<g>
				<rect x="160" y="125" fill="#42444C" width="5" height="5"/>
				<rect x="165" y="130" fill="#42444C" width="5" height="5"/>
				<rect x="170" y="135" fill="#42444C" width="10" height="5"/>
			</g>
		</g>
		<g display="inline">
			<polygon fill="#E6E6E6" points="45,100 40,100 35,100 35,165 40,165 40,110 45,110 45,165 50,165 50,100 			"/>
			<polygon fill="#0071BC" points="45,165 45,110 40,110 40,165 35,165 35,170 50,170 50,165 			"/>
			<rect x="40" y="95" fill="#CCCCCC" width="5" height="5"/>
			<rect x="40" y="90" fill="#006299" width="5" height="5"/>
		</g>
		<g display="inline">
			<rect x="30" fill="#E6E6E6" width="125" height="45"/>
			<rect x="35" y="35" fill="#B3B3B3" width="5" height="5"/>
			<rect x="35" y="25" fill="#B3B3B3" width="15" height="5"/>
			<rect x="45" y="35" fill="#B3B3B3" width="5" height="5"/>
			<rect x="55" y="35" fill="#B3B3B3" width="5" height="5"/>
			<rect x="50" y="25" fill="#B3B3B3" width="5" height="5"/>
			<rect x="60" y="25" fill="#B3B3B3" width="5" height="5"/>
			<rect x="70" y="25" fill="#B3B3B3" width="5" height="5"/>
			<rect x="80" y="25" fill="#B3B3B3" width="5" height="5"/>
			<rect x="90" y="25" fill="#B3B3B3" width="5" height="5"/>
			<rect x="100" y="25" fill="#B3B3B3" width="5" height="5"/>
			<rect x="110" y="25" fill="#B3B3B3" width="5" height="5"/>
			<rect x="120" y="25" fill="#B3B3B3" width="5" height="5"/>
			<rect x="130" y="25" fill="#B3B3B3" width="5" height="5"/>
			<rect x="135" y="25" fill="#B3B3B3" width="15" height="5"/>
			<rect x="35" y="5" fill="#B3B3B3" width="5" height="5"/>
			<rect x="45" y="5" fill="#B3B3B3" width="5" height="5"/>
			<rect x="55" y="5" fill="#B3B3B3" width="5" height="5"/>
			<rect x="65" y="5" fill="#B3B3B3" width="5" height="5"/>
			<rect x="75" y="5" fill="#B3B3B3" width="5" height="5"/>
			<rect x="85" y="5" fill="#B3B3B3" width="5" height="5"/>
			<rect x="95" y="5" fill="#B3B3B3" width="5" height="5"/>
			<rect x="105" y="5" fill="#B3B3B3" width="5" height="5"/>
			<rect x="115" y="5" fill="#B3B3B3" width="5" height="5"/>
			<rect x="125" y="5" fill="#B3B3B3" width="5" height="5"/>
			<rect x="135" y="5" fill="#B3B3B3" width="5" height="5"/>
			<rect x="145" y="5" fill="#B3B3B3" width="5" height="5"/>
			<rect x="35" y="15" fill="#B3B3B3" width="10" height="5"/>
			<rect x="50" y="15" fill="#B3B3B3" width="5" height="5"/>
			<rect x="60" y="15" fill="#B3B3B3" width="5" height="5"/>
			<rect x="70" y="15" fill="#B3B3B3" width="5" height="5"/>
			<rect x="80" y="15" fill="#B3B3B3" width="5" height="5"/>
			<rect x="90" y="15" fill="#B3B3B3" width="5" height="5"/>
			<rect x="100" y="15" fill="#B3B3B3" width="5" height="5"/>
			<rect x="110" y="15" fill="#B3B3B3" width="5" height="5"/>
			<rect x="120" y="15" fill="#B3B3B3" width="5" height="5"/>
			<rect x="130" y="15" fill="#B3B3B3" width="5" height="5"/>
			<rect x="140" y="15" fill="#B3B3B3" width="10" height="5"/>
			<rect x="65" y="35" fill="#B3B3B3" width="5" height="5"/>
			<rect x="75" y="35" fill="#B3B3B3" width="35" height="5"/>
			<rect x="125" y="35" fill="#B3B3B3" width="5" height="5"/>
			<rect x="115" y="35" fill="#B3B3B3" width="5" height="5"/>
			<rect x="135" y="35" fill="#B3B3B3" width="15" height="5"/>
		</g>
		<g display="inline">
			<polygon fill="#C1272D" points="270,50 270,45 260,45 260,40 245,40 245,45 235,45 235,40 230,40 230,45 220,45 220,50 215,50 
				215,55 215,60 215,65 215,70 215,75 215,80 220,80 220,85 220,90 225,90 225,95 230,95 230,100 240,100 240,95 245,95 245,100 
				260,100 260,95 265,95 265,90 265,85 270,85 270,80 270,75 275,75 275,70 275,65 275,60 275,55 275,50 			"/>
			<g>
				<polygon fill="#754C24" points="240,40 240,45 245,45 245,40 245,35 240,35 				"/>
				<polygon fill="#754C24" points="245,25 245,30 245,35 250,35 250,30 250,25 				"/>
			</g>
			<polygon fill="#39B54A" points="235,35 235,30 230,30 225,30 225,25 220,25 215,25 210,25 205,25 205,30 210,30 210,35 215,35 
				215,40 220,40 225,40 230,40 235,40 235,45 240,45 240,35 			"/>
			<g>
				<rect x="230" y="50" fill="#7F1B22" width="10" height="5"/>
				<rect x="240" y="55" fill="#7F1B22" width="5" height="5"/>
				<rect x="245" y="50" fill="#7F1B22" width="10" height="5"/>
			</g>
		</g>
		<g display="inline">
			<rect x="130" y="70" fill="#C82026" width="10" height="10"/>
			<rect x="135" y="80" fill="#C9D8DF" width="5" height="40"/>
			<g>
				<rect x="125" y="70" fill="#C9D8DF" width="5" height="5"/>
				<polygon fill="#C9D8DF" points="120,65 120,60 115,60 115,55 105,55 105,60 110,60 110,65 115,65 115,70 125,70 125,65 				"/>
				<rect x="100" y="50" fill="#C9D8DF" width="5" height="5"/>
				<rect x="95" y="45" fill="#C9D8DF" width="5" height="5"/>
			</g>
		</g>
		<g display="inline">
			<rect x="115" y="235" fill="#998675" width="40" height="20"/>
			<polygon fill="#736357" points="125,245 125,240 120,240 120,250 125,250 145,250 145,245 			"/>
		</g>
	</g>
	<g id="mad" display="none">
		<polygon display="inline" fill="#25463B" points="205,110 200,110 190,110 190,105 175,105 175,100 160,100 160,95 115,95 
			115,100 105,100 105,105 100,105 95,105 95,130 100,130 100,150 110,150 110,155 115,155 115,160 120,160 120,165 145,165 
			145,160 155,160 155,155 160,155 160,150 175,150 175,145 185,145 185,140 200,140 205,140 205,125 210,125 210,110 		"/>
		<polygon display="inline" fill="#88995E" points="235,40 235,35 230,35 230,25 225,25 225,20 220,20 215,20 215,15 205,15 205,10 
			195,10 195,5 180,5 180,0 110,0 110,5 100,5 100,10 90,10 90,15 85,15 85,20 80,20 75,20 75,25 70,25 70,30 65,30 65,40 60,40 
			60,45 65,45 65,50 70,50 70,60 75,60 75,65 80,65 80,75 85,75 85,85 90,85 90,95 90,100 95,100 95,105 105,105 105,100 115,100 
			115,95 160,95 160,100 175,100 175,105 190,105 190,110 210,110 210,105 215,105 215,100 215,95 215,90 220,90 220,75 225,75 
			225,60 230,60 230,50 235,50 235,45 240,45 240,40 		"/>
		<polygon display="inline" fill="#EFE8A8" points="200,85 195,85 185,85 180,85 180,80 170,80 170,95 170,100 170,105 170,115 
			165,115 165,120 165,125 165,125 165,130 165,135 165,140 165,145 165,150 175,150 175,145 185,145 185,140 220,140 220,145 
			225,145 225,135 230,135 230,110 235,110 235,95 225,95 225,90 200,90 		"/>
		<g display="inline">
			<polygon points="180,100 180,105 190,105 190,110 195,110 195,105 195,100 			"/>
			<rect x="185" y="110" width="5" height="5"/>
			<rect x="180" y="115" width="5" height="5"/>
		</g>
		<g display="inline">
			<polygon points="200,125 200,130 210,130 210,135 215,135 215,130 215,125 			"/>
			<rect x="205" y="135" width="5" height="5"/>
			<rect x="200" y="140" width="5" height="5"/>
		</g>
		<g display="inline">
			<rect x="180" y="130" width="5" height="5"/>
			<rect x="185" y="125" width="5" height="5"/>
			<rect x="190" y="120" width="5" height="5"/>
			<rect x="195" y="115" width="5" height="5"/>
			<rect x="200" y="110" width="5" height="5"/>
			<rect x="205" y="105" width="5" height="5"/>
		</g>
		<rect x="100" y="185" display="inline" fill="#998675" width="100" height="10"/>
		<g display="inline">
			<path fill="#5D6640" d="M225,150v-5h-5v-5h-35v5h-10v5h-15v5h-5v5h-10v5h-25v-5h-5v-5h-5v-5h-10v-5v-5h-5H85v5h-5v5h-5v5v5v5h5v5
				v5h5v5h10v5h5h105h5v-5h15v-5v-5h5v-5v-5v-5v-5H225z M225,160v5h-5v5v5h-15v5H100v-5H90v-5h-5v-5v-5h-5v-5h5v-5h10v5h10v5h5v5h5
				v5h35v-5h10v-5h5v-5h15v-5h10v-5h25v5h5v5h5V160z"/>
			<polygon fill="#88995E" points="220,155 220,150 215,150 215,145 190,145 190,150 180,150 180,155 165,155 165,160 160,160 
				160,165 150,165 150,170 115,170 115,165 110,165 110,160 105,160 105,155 95,155 95,150 85,150 85,155 80,155 80,160 85,160 
				85,165.001 85,170 90,170 90,175 100,175 100,180 205,180 205,175 220,175 220,170.001 220,165 225,165 225,160.001 225,155 			
				"/>
		</g>
		<polygon display="inline" fill="#3E337F" points="125,185 125,180 120,180 120,175 115,175 115,170 100,170 100,175 95,175 
			95,185 100,185 100,180 115,180 115,185 120,185 120,190 125,190 125,195 130,195 130,190 130,185 		"/>
		<polygon display="inline" fill="#3E337F" points="165,175 165,170 150,170 150,175 145,175 140,175 140,180 135,180 135,185 
			130,185 130,195 135,195 135,190 140,190 140,185 145,185 145,180 165,180 165,185 170,185 170,180 170,175 		"/>
		<g display="inline">
			<rect x="115" y="235" fill="#998675" width="40" height="20"/>
			<polygon fill="#736357" points="120,240 120,245 125,245 125,250 140,250 140,245 145,245 145,240 			"/>
		</g>
	</g>
</g>
</svg>
