<?xml version="1.0" encoding="utf-8"?>
<!-- Generator: Adobe Illustrator 16.0.0, SVG Export Plug-In . SVG Version: 6.00 Build 0)  -->
<!DOCTYPE svg PUBLIC "-//W3C//DTD SVG 1.1//EN" "http://www.w3.org/Graphics/SVG/1.1/DTD/svg11.dtd">
<svg version="1.1" xmlns="http://www.w3.org/2000/svg" xmlns:xlink="http://www.w3.org/1999/xlink" x="0px" y="0px" viewBox="0 0 240 300" enable-background="new 0 0 240 300" xml:space="preserve">
<g id="base">
	<polygon fill="#998675" points="170,195 170,165.667 170,160 165,160 165,150 160,150 155,150 155,145 150,145 150,140 85,140 
		85,145 80,145 80,150 75,150 75,160 70,160 70,240 70,260 75,260 75,270 85,270 85,275 85,280 85,300 145,300 145,275 145,270 
		160,270 160,260 170,260 170,240 170,220 185,220 185,195 	"/>
	<rect x="175" y="202" fill="#736357" width="5" height="10"/>
	<polygon fill="#736357" points="100,225 100,205 95,205 95,225 95,230 110,230 110,225 	"/>
	<rect x="70" y="185" fill="#3A3632" width="20" height="5"/>
	<rect x="90" y="245" fill="#736357" width="25" height="5"/>
	<rect x="115" y="185" fill="#3A3632" width="25" height="5"/>
	<rect x="75" y="200" fill="#3A3632" width="5" height="5"/>
	<rect x="120" y="200" fill="#3A3632" width="5" height="5"/>
	<rect x="85" y="275" fill="#736357" width="40" height="5"/>
	<rect x="95" y="260" fill="#736357" width="15" height="5"/>
</g>
<g id="beard">
	<path fill="#3A3632" d="M160,220v10h-15v10h-15v-10h-5H85h-5v10H70v-20h-5v20v25h5v10h5v10h80v-10h15v-10h5v-25v-10v-10H160z
		 M85,235h40v20H85V235z"/>
</g>
<g id="faces">
	<g id="smirk" display="none">
		<rect x="85" y="235" display="inline" fill="#998675" width="40" height="20"/>
		<polygon display="inline" fill="#736357" points="110,240 110,245 90,245 90,250 115,250 115,245 115,240 		"/>
	</g>
	<g id="smile" display="none">
		<rect x="85" y="235" display="inline" fill="#998675" width="40" height="20"/>
		<rect x="90" y="240" display="inline" fill="#736357" width="5" height="5"/>
		<rect x="110" y="240" display="inline" fill="#736357" width="5" height="5"/>
		<rect x="95" y="245" display="inline" fill="#736357" width="15" height="5"/>
	</g>
	<g id="frown" display="none">
		<rect x="85" y="235" display="inline" fill="#998675" width="40" height="20"/>
		<polygon display="inline" fill="#736357" points="95,250 95,245 115,245 115,240 90,240 90,245 90,250 		"/>
	</g>
	<g id="surprised" display="none">
		<rect x="85" y="240" display="inline" fill="#998675" width="40" height="15"/>
		<rect x="95" y="240" display="inline" fill="#736357" width="15" height="10"/>
		<rect x="115" y="175" display="inline" fill="#3A3632" width="25" height="5"/>
		<rect x="115" y="185" display="inline" fill="#998675" width="25" height="5"/>
		<polygon display="inline" fill="#3A3632" points="140,175 115,175 115,180 140,180 140,185 145,185 145,175 		"/>
		<polygon display="inline" fill="#3A3632" points="85,175 70,175 65,175 65,180 65,185 70,185 70,180 85,180 		"/>
		<rect x="70" y="185" display="inline" fill="#998675" width="20" height="5"/>
	</g>
	<g id="right_up" display="none">
		<rect x="115" y="185" display="inline" fill="#998675" width="25" height="5"/>
		<polygon display="inline" fill="#3A3632" points="140,175 115,175 115,180 140,180 140,185 145,185 145,175 		"/>
		<rect x="85" y="235" display="inline" fill="#998675" width="40" height="20"/>
		<polygon display="inline" fill="#736357" points="110,240 110,245 90,245 90,250 115,250 115,245 115,240 		"/>
	</g>
	<g id="left_up" display="none">
		<rect x="85" y="235" display="inline" fill="#998675" width="40" height="20"/>
		<polygon display="inline" fill="#3A3632" points="85,175 65,175 65,180 85,180 85,185 90,185 90,175 		"/>
		<rect x="70" y="185" display="inline" fill="#998675" width="20" height="5"/>
		<polygon display="inline" fill="#736357" points="95,245 95,240 90,240 90,250 95,250 115,250 115,245 		"/>
	</g>
	<g id="tongue" display="none">
		<rect x="85" y="235" display="inline" fill="#998675" width="40" height="20"/>
		<polygon display="inline" fill="#736357" points="115,240 95,240 90,240 90,245 90,250 120,250 120,245 120,240 		"/>
		<g display="inline">
			<polygon fill="#CC667E" points="95,245 95,250 95,255 95,260 110,260 110,255 115,255 115,250 115,245 			"/>
			<polygon fill="#993F55" points="110,245 100,245 100,255 105,255 105,250 110,250 			"/>
		</g>
	</g>
	<g id="drool">
		<polygon fill="#D3E9F4" points="105,250 105,260 110,260 110,265 115,265 115,260 115,250 		"/>
	</g>
</g>
<g id="glasses_1_">
	<g id="standard">
		<g>
			<rect x="65" y="195" fill="#D3E9F4" width="30" height="20"/>
		</g>
		<g>
			<rect x="110" y="195" fill="#D3E9F4" width="35" height="20"/>
		</g>
		<rect x="65" y="190" width="120" height="5"/>
	</g>
	<g id="_x33_d" display="none">
		<polygon display="inline" fill="#E6E6E6" points="105,190 100,190 95,190 90,190 60,190 60,215 90,215 90,210 95,210 95,205 
			100,205 100,210 105,210 105,215 145,215 145,190 		"/>
		<polygon display="inline" fill="#B3B3B3" points="170,190 165,190 160,190 155,190 145,190 145,215 155,215 155,210 160,210 
			160,200 165,200 170,200 170,195 180,195 180,190 		"/>
		<rect x="65" y="195" display="inline" fill="#3FA9F5" width="20" height="15"/>
		<rect x="110" y="195" display="inline" fill="#FF1D25" width="25" height="15"/>
	</g>
</g>
<g id="hats">
	<g id="arch" display="none">
		<polygon display="inline" fill="#FCEE21" points="180,180 180,175 180,165 175,165 175,160 175,150 170,150 170,145 170,140 
			165,140 165,135 160,135 160,130 155,130 150,130 150,125 145,125 135,125 135,120 100,120 100,125 90,125 90,130 85,130 80,130 
			80,135 75,135 75,140 70,140 70,145 70,150 65,150 65,155 65,160 65,165 60,165 60,170 60,175 60,180 60,190 180,190 185,190 
			185,180 		"/>
		<polygon display="inline" fill="#CCAF23" points="110,115 110,120 105,120 105,125 100,125 100,130 100,135 100,140 95,140 
			95,145 95,160 90,160 90,175 85,175 85,190 90,190 105,190 105,175 105,160 105,145 110,145 110,140 110,135 110,130 115,130 
			115,125 115,120 120,120 120,115 		"/>
		<rect x="40" y="180" display="inline" fill="#B29C1D" width="105" height="10"/>
		<rect x="150" y="190" display="inline" fill="#666666" width="35" height="10"/>
		<rect x="90" y="210" display="inline" fill="#998675" width="5" height="5"/>
		<polygon display="inline" fill="#B3FFFD" points="105,190 90,190 60,190 60,215 65,215 65,220 90,220 90,215 95,215 95,210 
			100,210 100,215 105,215 105,220 145,220 145,215 150,215 150,190 		"/>
		<rect x="65" y="190" display="inline" fill="#FFFFFF" width="5" height="5"/>
		<rect x="108" y="190" display="inline" fill="#FFFFFF" width="5" height="5"/>
	</g>
	<g id="dunce">
		<polygon fill="#F2F2F2" points="180,5 180,10 175,10 175,15 170,15 170,20 165,20 165,25 165,30 160,30 160,35 155,35 155,40 
			150,40 150,45 150,50 145,50 145,55 140,55 140,60 135,60 135,65 135,70 130,70 130,75 125,75 125,80 120,80 120,85 115,85 
			115,90 115,95 110,95 110,100 105,100 105,105 100,105 100,110 100,115 95,115 95,120 90,120 90,125 85,125 85,130 80,130 80,135 
			80,140 75,140 75,145 70,145 70,150 115,150 115,155 130,155 130,160 145,160 145,165 160,165 160,170 170,170 170,175 175,175 
			175,170 175,165 175,160 175,155 175,150 175,145 175,140 175,135 175,130 175,125 175,120 180,120 180,115 180,110 180,105 
			180,100 180,95 180,90 180,85 180,80 180,75 180,70 180,65 180,60 180,55 180,50 180,45 180,40 185,40 185,35 185,30 185,25 
			185,20 185,15 185,10 185,5 		"/>
		<g>
			<polygon fill="#4D4D4D" points="70,155 65,155 65,165 70,165 70,160 75,160 75,155 80,155 80,150 70,150 			"/>
			<rect x="170" y="175" fill="#4D4D4D" width="5" height="5"/>
		</g>
		<g>
			<rect x="65" y="150" fill="#CCCCCC" width="5" height="5"/>
			<polygon fill="#CCCCCC" points="170,20 165,20 165,25 165,30 160,30 160,35 155,35 155,40 150,40 150,45 150,50 145,50 145,55 
				140,55 140,60 135,60 135,65 135,70 130,70 130,75 125,75 125,80 120,80 120,85 115,85 115,90 115,95 110,95 110,100 105,100 
				105,105 100,105 100,110 100,115 95,115 95,120 90,120 90,125 85,125 85,130 80,130 80,135 80,140 75,140 75,145 70,145 70,150 
				105,150 105,145 110,145 110,140 110,135 115,135 115,130 115,125 120,125 120,120 125,120 125,115 125,110 130,110 130,105 
				130,100 135,100 135,95 135,90 140,90 140,85 140,80 145,80 145,75 145,70 150,70 150,65 150,60 155,60 155,55 155,50 160,50 
				160,45 160,40 165,40 165,35 170,35 170,30 170,25 175,25 175,20 175,15 170,15 			"/>
			<rect x="175" y="10" fill="#CCCCCC" width="5" height="5"/>
		</g>
		<g>
			<rect x="105" y="130" width="10" height="5"/>
			<rect x="110" y="135" width="15" height="5"/>
			<rect x="125" y="130" width="10" height="5"/>
			<rect x="130" y="125" width="10" height="5"/>
			<rect x="135" y="110" width="5" height="15"/>
			<rect x="130" y="105" width="10" height="5"/>
			<rect x="120" y="100" width="15" height="5"/>
			<rect x="115" y="105" width="5" height="10"/>
			<rect x="110" y="115" width="5" height="10"/>
			<rect x="105" y="125" width="5" height="5"/>
		</g>
	</g>
	<g id="empty-head" display="none">
		<rect x="70" y="140" display="inline" fill="#FFFFFF" width="100" height="25"/>
		<polygon display="inline" points="17,95 17,90 22,90 22,100 17,100 12,100 12,95 		"/>
		<polygon display="inline" fill="#998675" points="190,80 190,75 185,75 185,70 175,70 175,65 170,65 170,165 175,165 175,160 
			185,160 185,150 190,150 190,145 195,145 195,80 		"/>
		<g display="inline">
			<polygon fill="#C1272D" points="140,165 140,175 150,175 150,180 160,180 160,190 170,190 170,180 170,175 170,165 			"/>
			<rect x="165" y="195" fill="#C1272D" width="5" height="5"/>
		</g>
		<g display="inline">
			<polygon fill="#E6E6E6" points="135,150 135,140 135,135 131,135 130,135 130,125 125,125 125,120 120,120 120,115 115,115 
				115,110 110,110 105,110 105,105 100,105 100,100 80,100 80,105 95,105 95,110 80,110 80,115 75,115 75,120 70,120 70,135 
				70,140 75,140 75,145 95,145 95,140 80,140 80,135 75,135 75,125 80,125 80,120 85,120 85,115 105,115 105,125 100,125 100,135 
				95,135 95,140 105,140 105,135 105,130 110,130 110,120 115,120 115,125 120,125 120,130 125,130 125,135 125,140 130,140 
				130,150 130,155 135,155 135,160 135,165 140,165 140,160 140,155 140,150 			"/>
			<rect x="70" y="105" fill="#E6E6E6" width="10" height="5"/>
			<polygon fill="#E6E6E6" points="60,115 50,115 50,120 45,120 45,115 35,115 35,110 30,110 30,105 25,105 25,100 20,100 20,110 
				25,110 25,115 30,115 30,120 35,120 40,120 40,125 55,125 55,120 65,120 65,115 70,115 70,110 60,110 			"/>
		</g>
		<polygon display="inline" fill="#C1272D" points="75,165 70,165 70,180 75,180 75,170 80,170 80,165 		"/>
	</g>
	<g id="superhero" display="none">
		<rect x="80" y="230" display="inline" fill="#736357" width="50" height="5"/>
		<polygon display="inline" fill="#1A1A1A" points="190,295 190,290 185,290 185,280 180,280 180,270 175,270 175,265 170,265 
			170,210 170,160 170,90 165,90 165,95 160,95 160,99 155,99 155,110 150,110 150,120 145,120 145,133 140,133 140,140 130,140 
			130,135 120,135 120,130 95,130 95,90 90,90 90,99 85,99 85,115 80,115 80,125 75,125 75,140 70,140 70,210 70,215 70,220 80,220 
			80,225 90,225 90,230 95,230 95,235 105,235 105,230 115,230 115,225 130,225 130,220 140,220 140,215 145,215 145,260 140,260 
			140,265 130,265 130,270 120,270 120,275 85,275 85,270 80,270 80,260 75,260 75,255 70,255 70,265 65,265 65,270 60,270 60,280 
			55,280 55,285 50,285 50,295 45,295 45,300 50,300 55,300 60,300 65,300 70,300 75,300 80,300 85,300 120,300 130,300 140,300 
			145,300 195,300 195,295 		"/>
		<g display="inline">
			<polygon fill="#F2F2F2" points="85,195 80,195 80,190 75,190 75,180 70,180 70,205 75,205 75,210 80,210 85,210 85,205 90,205 
				90,195 			"/>
			<polygon fill="#F2F2F2" points="140,175 140,180 140,185 125,185 125,190 120,190 120,195 110,195 110,200 110,205 115,205 
				115,210 130,210 130,205 140,205 140,200 140,195 145,195 145,190 145,185 145,180 145,175 			"/>
		</g>
		<rect x="170" y="190" display="inline" fill="#FFFFFF" width="20" height="30"/>
		<rect x="80" y="255" display="inline" fill="#998675" width="50" height="10"/>
		<rect x="85" y="265" display="inline" fill="#998675" width="35" height="5"/>
		<rect x="125" y="235" display="inline" fill="#736357" width="5" height="20"/>
		<rect x="80" y="235" display="inline" fill="#736357" width="5" height="20"/>
		<rect x="70" y="240" display="inline" fill="#736357" width="10" height="15"/>
		<rect x="130" y="240" display="inline" fill="#736357" width="15" height="15"/>
		<rect x="75" y="260" display="inline" fill="#736357" width="65" height="5"/>
		<rect x="75" y="255" display="inline" fill="#736357" width="70" height="5"/>
		<rect x="80" y="265" display="inline" fill="#736357" width="50" height="5"/>
		<rect x="90" y="245" display="inline" fill="#3A3632" width="25" height="5"/>
		<polygon display="inline" fill="#333333" points="135,140 130,140 130,135 120,135 120,130 95,130 95,135 90,135 90,139 85,139 
			85,145 80,145 80,150 75,150 75,155 70,155 70,165 75,165 75,160 80,160 80,155 85,155 90,155 90,150 95,150 100,150 115,150 
			115,155 120,155 125,155 125,160 130,160 135,160 135,155 140,155 140,150 140,145 140,140 		"/>
		<rect x="85" y="270" display="inline" fill="#736357" width="35" height="5"/>
		<polygon display="inline" fill="#333333" points="100,225 100,205 95,205 95,225 90,225 90,230 95,230 95,235 105,235 105,230 
			110,230 110,225 		"/>
		<rect x="140" y="260" display="inline" fill="#1A1A1A" width="5" height="40"/>
		<polygon display="inline" fill="#333333" points="165,295 165,290 160,290 160,280 155,280 155,270 150,270 150,265 145,265 
			145,270 140,270 140,280 135,280 135,285 130,285 130,295 120,295 120,300 170,300 170,295 		"/>
		<polygon display="inline" fill="#333333" points="85,295 85,285 80,285 80,275 75,275 75,270 70,270 70,290 65,290 65,296 60,296 
			60,300 90,300 90,295 		"/>
		<rect x="80" y="155" display="inline" fill="#1A1A1A" width="45" height="5"/>
		<rect x="90" y="150" display="inline" fill="#1A1A1A" width="25" height="5"/>
		<rect x="135" y="155" display="inline" fill="#1A1A1A" width="5" height="5"/>
	</g>
	<g id="swiss-army" display="none">
		<g display="inline">
			<g>
				<rect x="165" y="130" fill="#999999" width="5" height="15"/>
				<polygon fill="#999999" points="180,120 180,115 175,115 175,125 180,125 180,135 185,135 185,120 				"/>
				<rect x="195" y="105" fill="#666666" width="10" height="5"/>
				<rect x="180" y="115" fill="#666666" width="15" height="5"/>
				<rect x="170" y="130" fill="#666666" width="10" height="5"/>
				<polygon fill="#999999" points="225,65 225,70 220,70 220,75 215,75 215,80 210,80 210,85 205,85 205,110 210,110 210,90 
					220,90 220,95 225,95 225,90 230,90 230,85 230,80 230,75 230,70 230,65 				"/>
				<polygon fill="#999999" points="195,110 195,105 190,105 190,110 190,115 195,115 195,120 200,120 200,110 				"/>
			</g>
			<g>
				<rect x="130" y="65" fill="#666666" width="5" height="30"/>
				<polygon fill="#999999" points="145,85 145,80 145,75 145,70 150,70 150,65 155,65 155,60 160,60 160,55 165,55 165,50 170,50 
					170,45 150,45 150,50 140,50 140,55 135,55 135,60 135,65 135,70 135,75 135,80 135,85 135,90 135,95 130,95 130,100 130,105 
					130,110 130,115 130,120 130,125 155,125 155,120 160,120 160,115 165,115 165,110 170,110 170,105 170,100 170,95 170,90 
					170,85 165,85 165,80 160,80 160,85 160,90 160,95 160,100 150,100 150,95 145,95 145,90 				"/>
			</g>
			<g>
				<g>
					<polygon fill="#666666" points="100,115 100,110 90,110 90,105 80,105 80,110 85,110 85,115 95,115 95,120 105,120 105,125 
						110,125 110,120 110,115 					"/>
					<rect x="75" y="100" fill="#666666" width="5" height="5"/>
					<polygon fill="#666666" points="45,85 35,85 35,80 25,80 25,75 15,75 15,80 20,80 20,85 25,85 25,90 35,90 35,95 40,95 40,100 
						50,100 50,105 55,105 55,100 55,95 55,90 45,90 					"/>
					<rect x="65" y="105" fill="#666666" width="5" height="5"/>
				</g>
				<path fill="#999999" d="M75,105v-5v-5h-5v-5h-5v-5h-5v-5v-5h-5v-5h-5v-5h-5v-5v-5H35v5h5v5v5h5v5h5v5v5h5v5v5v5v5h5v5v5h5v5v5v5
					v5v10h10v-10v-5h5v-5h-5v-5v-5h5v-5v-5H75z M65,110v-5h5v5H65z"/>
			</g>
			<g>
				<rect x="95" y="25" fill="#666666" width="5" height="25"/>
				<rect x="105" y="95" fill="#666666" width="10" height="5"/>
				<polygon fill="#999999" points="115,20 115,15 115,10 115,5 110,5 110,0 105,0 105,5 100,5 100,10 100,15 100,20 95,20 95,25 
					100,25 100,30 100,35 100,40 100,45 100,50 95,50 95,55 95,60 95,65 95,70 95,75 95,80 95,85 100,85 100,90 100,95 100,100 
					100,105 100,110 100,115 100,120 120,120 120,115 120,110 120,105 120,100 105,100 105,95 120,95 120,90 120,85 120,80 120,75 
					120,70 120,65 120,60 120,55 120,50 120,45 120,40 120,35 120,30 120,25 120,20 				"/>
			</g>
			<g>
				<polygon fill="#C1272D" points="175,160 175,145 170,145 170,140 165,140 165,130 155,130 155,125 150,125 150,120 140,120 
					140,115 90,115 90,120 85,120 85,125 80,125 80,130 75,130 75,140 70,140 70,145 65,145 65,160 60,160 60,185 180,185 180,160 
									"/>
				<polygon fill="#992029" points="60,160 60,165 60,185 65,185 65,165 70,165 70,185 75,185 75,165 80,165 80,185 85,185 85,165 
					90,165 90,185 95,185 95,165 100,165 100,185 105,185 105,165 110,165 110,185 115,185 115,165 120,165 120,185 125,185 
					125,165 130,165 130,185 135,185 135,165 140,165 140,185 145,185 145,165 150,165 150,185 155,185 155,165 160,165 160,185 
					165,185 165,165 170,165 170,185 175,185 175,165 180,165 180,160 				"/>
				<polygon fill="#FFFFFF" points="110,140 105,140 105,135 100,135 100,140 95,140 95,145 100,145 100,150 105,150 105,145 
					110,145 				"/>
			</g>
		</g>
	</g>
	<g id="dumbo" display="none">
		<polygon display="inline" fill="#9E0066" points="155,50 130,50 130,45 125,45 125,5 155,5 		"/>
		<rect x="70" y="135" display="inline" fill="#FFFFFF" width="100" height="30"/>
		<g display="inline">
			<g>
				<g>
					<polygon fill="#243033" points="165,75 165,70 160,70 160,80 165,80 165,85 170,85 170,75 					"/>
					<polygon fill="#243033" points="175,90 175,85 170,85 170,95 175,95 175,100 180,100 180,90 					"/>
					<polygon fill="#243033" points="185,105 185,100 180,100 180,110 185,110 185,115 190,115 190,105 					"/>
					<polygon fill="#243033" points="195,120 195,115 190,115 190,125 195,125 195,130 200,130 200,120 					"/>
					<polygon fill="#243033" points="205,135 205,130 200,130 200,140 205,140 205,145 210,145 210,135 					"/>
					<polygon fill="#243033" points="215,150 215,145 210,145 210,155 215,155 215,160 220,160 220,150 					"/>
					<polygon fill="#243033" points="225,165 225,160 220,160 220,170 225,170 225,175 230,175 230,165 					"/>
				</g>
				<g>
					<polygon fill="#243033" points="135,75 135,70 130,70 130,80 135,80 135,85 140,85 140,75 					"/>
					<polygon fill="#243033" points="145,90 145,85 140,85 140,95 145,95 145,100 150,100 150,90 					"/>
					<polygon fill="#243033" points="155,105 155,100 150,100 150,110 155,110 155,115 160,115 160,105 					"/>
					<polygon fill="#243033" points="165,120 165,115 160,115 160,125 165,125 165,130 170,130 170,120 					"/>
					<polygon fill="#243033" points="175,135 175,130 170,130 170,140 175,140 175,145 180,145 180,135 					"/>
					<polygon fill="#243033" points="185,150 185,145 180,145 180,155 185,155 185,160 190,160 190,150 					"/>
					<polygon fill="#243033" points="195,165 195,160 190,160 190,170 195,170 195,175 200,175 200,165 					"/>
				</g>
				<g>
					<polygon fill="#243033" points="95,75 95,70 90,70 90,80 95,80 95,85 100,85 100,75 					"/>
					<polygon fill="#243033" points="105,90 105,85 100,85 100,95 105,95 105,100 110,100 110,90 					"/>
					<polygon fill="#243033" points="115,105 115,100 110,100 110,110 115,110 115,115 120,115 120,105 					"/>
					<polygon fill="#243033" points="125,120 125,115 120,115 120,125 125,125 125,130 130,130 130,120 					"/>
					<polygon fill="#243033" points="135,135 135,130 130,130 130,140 135,140 135,145 140,145 140,135 					"/>
					<polygon fill="#243033" points="145,150 145,145 140,145 140,155 145,155 145,160 150,160 150,150 					"/>
					<polygon fill="#243033" points="155,165 155,160 150,160 150,170 155,170 155,175 160,175 160,165 					"/>
				</g>
			</g>
			<polygon fill="#B2AAA1" points="135,55 135,60 120,60 120,55 95,55 95,60 85,60 85,55 65,55 65,60 70,60 70,175 80,175 80,95 
				85,95 85,85 90,85 95,85 95,95 100,95 100,175 115,175 115,95 120,95 120,85 135,85 135,95 140,95 140,175 160,175 160,60 
				165,60 165,55 			"/>
			<polygon fill="#66625D" points="165,55 165,60 160,60 160,175 170,175 170,60 175,60 175,55 			"/>
			<polygon fill="#66625D" points="120,85 120,95 115,95 115,170 120,170 120,100 125,100 125,85 			"/>
			<polygon fill="#66625D" points="85,85 85,95 80,95 80,170 85,170 85,100 90,100 90,85 			"/>
			<g>
				<g>
					<polygon fill="#485E66" points="75,70 75,75 70,75 70,85 75,85 75,80 80,80 80,70 					"/>
					<polygon fill="#485E66" points="65,90 60,90 60,100 65,100 65,95 70,95 70,85 65,85 					"/>
					<polygon fill="#485E66" points="55,105 50,105 50,115 55,115 55,110 60,110 60,100 55,100 					"/>
					<polygon fill="#485E66" points="45,120 40,120 40,130 45,130 45,125 50,125 50,115 45,115 					"/>
					<polygon fill="#485E66" points="35,135 30,135 30,145 35,145 35,140 40,140 40,130 35,130 					"/>
					<polygon fill="#485E66" points="25,150 20,150 20,160 25,160 25,155 30,155 30,145 25,145 					"/>
					<polygon fill="#485E66" points="15,165 10,165 10,175 15,175 15,170 20,170 20,160 15,160 					"/>
				</g>
				<g>
					<polygon fill="#485E66" points="105,70 105,75 100,75 100,85 105,85 105,80 110,80 110,70 					"/>
					<polygon fill="#485E66" points="95,90 90,90 90,100 95,100 95,95 100,95 100,85 95,85 					"/>
					<polygon fill="#485E66" points="85,105 80,105 80,115 85,115 85,110 90,110 90,100 85,100 					"/>
					<polygon fill="#485E66" points="75,120 70,120 70,130 75,130 75,125 80,125 80,115 75,115 					"/>
					<polygon fill="#485E66" points="65,135 60,135 60,145 65,145 65,140 70,140 70,130 65,130 					"/>
					<polygon fill="#485E66" points="55,150 50,150 50,160 55,160 55,155 60,155 60,145 55,145 					"/>
					<polygon fill="#485E66" points="45,165 40,165 40,175 45,175 45,170 50,170 50,160 45,160 					"/>
				</g>
				<g>
					<polygon fill="#485E66" points="145,70 145,75 140,75 140,85 145,85 145,80 150,80 150,70 					"/>
					<polygon fill="#485E66" points="135,90 130,90 130,100 135,100 135,95 140,95 140,85 135,85 					"/>
					<polygon fill="#485E66" points="125,105 120,105 120,115 125,115 125,110 130,110 130,100 125,100 					"/>
					<polygon fill="#485E66" points="115,120 110,120 110,130 115,130 115,125 120,125 120,115 115,115 					"/>
					<polygon fill="#485E66" points="105,135 100,135 100,145 105,145 105,140 110,140 110,130 105,130 					"/>
					<polygon fill="#485E66" points="95,150 90,150 90,160 95,160 95,155 100,155 100,145 95,145 					"/>
					<polygon fill="#485E66" points="85,165 80,165 80,175 85,175 85,170 90,170 90,160 85,160 					"/>
				</g>
			</g>
			<rect y="165" fill="#B2AAA1" width="130" height="10"/>
			<rect x="130" y="165" fill="#66625D" width="110" height="10"/>
			<rect x="120" y="55" fill="#66625D" width="5" height="5"/>
		</g>
		<rect x="115" display="inline" fill="#EC008C" width="20" height="40"/>
		<rect x="105" display="inline" fill="#CCCCCC" width="5" height="55"/>
		<rect x="110" y="10" display="inline" fill="#EC008C" width="5" height="35"/>
		<rect x="150" y="40" display="inline" fill="#EC008C" width="5" height="5"/>
		<rect x="130" y="10" display="inline" fill="#FFFFFF" width="5" height="25"/>
		<polygon display="inline" fill="#CCCCCC" points="140,15 140,25 135,25 135,30 140,30 140,40 145,40 145,15 		"/>
		<polygon display="inline" fill="#EC008C" points="165,10 150,10 150,50 165,50 165,45 170,45 170,15 165,15 		"/>
		<rect x="90" y="80" display="inline" fill="#66625D" width="5" height="5"/>
		<rect x="125" y="80" display="inline" fill="#66625D" width="5" height="5"/>
	</g>
	<g id="surprise" display="none">
		<rect x="60" y="80" display="inline" fill="#D8B3FF" width="90" height="90"/>
		<rect x="150" y="80" display="inline" fill="#957FB2" width="15" height="90"/>
		<rect x="165" y="80" display="inline" fill="#462166" width="10" height="90"/>
		<polygon display="inline" fill="#662D91" points="120,65 120,60 105,60 105,65 100,65 100,70 100,75 105,75 105,80 120,80 120,75 
			125,75 125,70 125,65 		"/>
		<g display="inline">
			<polygon fill="#462166" points="150,65 150,70 140,70 140,75 130,75 130,70 125,70 125,75 120,75 120,80 150,80 150,75 155,75 
				155,70 155,65 			"/>
			<rect x="135" y="60" fill="#462166" width="15" height="5"/>
			<rect x="130" y="65" fill="#462166" width="5" height="5"/>
		</g>
		<g display="inline">
			<polygon fill="#462166" points="100,75 100,70 95,70 95,75 85,75 85,70 80,70 80,65 75,65 75,70 75,75 80,75 80,80 105,80 
				105,75 			"/>
			<rect x="80" y="60" fill="#462166" width="10" height="5"/>
			<rect x="90" y="65" fill="#462166" width="5" height="5"/>
		</g>
		<rect x="95" y="80" display="inline" fill="#662D91" width="15" height="90"/>
		<polygon display="inline" fill="#957FB2" points="180,85 180,80 175,80 175,170 180,170 180,165 185,165 185,85 		"/>
	</g>
	<g id="silly" display="none">
		<polygon display="inline" fill="#C1272D" points="95,115 95,120 85,120 85,125 80,125 80,130 80,135 75,135 75,140 75,145 70,145 
			70,150 70,155 65,155 65,160 65,165 65,170 65,175 65,180 95,180 95,175 95,170 95,165 95,160 95,155 100,155 100,150 100,145 
			105,145 105,140 105,135 110,135 110,130 110,125 115,125 115,120 115,115 		"/>
		<rect x="115" y="100" display="inline" fill="#B3B3B3" width="5" height="15"/>
		<polygon display="inline" fill="#39B54A" points="140,155 140,150 140,145 135,145 135,140 135,135 130,135 130,130 130,125 
			125,125 125,120 125,115 115,115 115,120 115,125 110,125 110,130 110,135 105,135 105,140 105,145 100,145 100,150 100,155 
			95,155 95,160 95,165 95,170 95,175 95,180 145,180 145,175 145,170 145,165 145,160 145,155 		"/>
		<polygon display="inline" fill="#F7931E" points="170,155 170,150 165,150 165,145 165,140 160,140 160,135 160,130 155,130 
			155,125 145,125 145,120 135,120 135,115 125,115 125,120 125,125 130,125 130,130 130,135 135,135 135,140 135,145 140,145 
			140,150 140,155 145,155 145,160 145,165 145,170 175,170 175,165 175,160 175,155 		"/>
		<polygon display="inline" fill="#C1272D" points="110,85 110,90 110,95 115,95 115,100 120,100 120,95 125,95 125,90 125,85 		"/>
		<polygon display="inline" fill="#0071BC" points="120,100 120,105 135,105 135,110 145,110 145,115 170,115 170,110 175,110 
			175,105 180,105 180,100 		"/>
		<polygon display="inline" fill="#0071BC" points="100,100 100,95 85,95 85,90 75,90 75,95 70,95 70,100 65,100 65,105 115,105 
			115,100 		"/>
		<polygon display="inline" fill="#00527F" points="145,170 145,175 145,180 210,180 210,170 		"/>
	</g>
	<g id="hi" display="none">
		<rect x="55" y="35" display="inline" width="140" height="95"/>
		<rect x="60" y="40" display="inline" fill="#272822" width="130" height="85"/>
		<g display="inline">
			<g>
				<rect x="85" y="85" fill="#716D5C" width="5" height="5"/>
				<rect x="90" y="80" fill="#716D5C" width="5" height="5"/>
				<rect x="95" y="75" fill="#716D5C" width="5" height="5"/>
				<rect x="90" y="90" fill="#716D5C" width="5" height="5"/>
				<rect x="95" y="95" fill="#716D5C" width="5" height="5"/>
			</g>
			<g>
				<rect x="160" y="85" fill="#716D5C" width="5" height="5"/>
				<rect x="155" y="90" fill="#716D5C" width="5" height="5"/>
				<rect x="150" y="95" fill="#716D5C" width="5" height="5"/>
				<rect x="155" y="80" fill="#716D5C" width="5" height="5"/>
				<rect x="150" y="75" fill="#716D5C" width="5" height="5"/>
			</g>
			<g>
				<polygon fill="#F9275D" points="110,80 110,70 105,70 105,100 110,100 110,85 120,85 120,80 				"/>
				<rect x="120" y="85" fill="#F9275D" width="5" height="15"/>
			</g>
			<polygon fill="#F9275D" points="140,95 140,70 135,70 135,75 130,75 130,80 135,80 135,95 130,95 130,100 145,100 145,95 			"/>
		</g>
		<rect x="15" y="130" display="inline" fill="#E6E6E6" width="135" height="5"/>
		<rect x="20" y="135" display="inline" fill="#E6E6E6" width="125" height="5"/>
		<polygon display="inline" fill="#808080" points="150,130 150,135 145,135 145,140 190,140 190,135 195,135 195,130 		"/>
		<rect x="70" y="130" display="inline" fill="#999999" width="25" height="5"/>
	</g>
</g>
</svg>
