<?xml version="1.0" encoding="utf-8"?>
<!-- Generator: Adobe Illustrator 16.0.0, SVG Export Plug-In . SVG Version: 6.00 Build 0)  -->
<!DOCTYPE svg PUBLIC "-//W3C//DTD SVG 1.1//EN" "http://www.w3.org/Graphics/SVG/1.1/DTD/svg11.dtd" [
	<!ENTITY st0 "fill:#462166;">
	<!ENTITY st1 "fill:#485E66;">
	<!ENTITY st2 "display:inline;fill:#E6DB72;">
	<!ENTITY st3 "display:inline;fill:#E6E6E6;">
	<!ENTITY st4 "display:inline;fill:#808080;">
	<!ENTITY st5 "display:inline;fill:#B29C1D;">
	<!ENTITY st6 "display:inline;fill:#B3B3B3;">
	<!ENTITY st7 "display:inline;fill:#B3FFFD;">
	<!ENTITY st8 "display:inline;fill:#1A1A1A;">
	<!ENTITY st9 "fill:#E6E6E6;">
	<!ENTITY st10 "fill:#4D4D4D;">
	<!ENTITY st11 "fill:#808080;">
	<!ENTITY st12 "fill:#B2AAA1;">
	<!ENTITY st13 "fill:#1A1A1A;">
	<!ENTITY st14 "fill:#B7007F;">
	<!ENTITY st15 "fill:#EC008C;">
	<!ENTITY st16 "display:inline;fill:#F2F2F2;">
	<!ENTITY st17 "display:inline;fill:#272822;">
	<!ENTITY st18 "display:inline;fill:#F7931E;">
	<!ENTITY st19 "display:inline;fill:#F9275D;">
	<!ENTITY st20 "display:inline;fill:#C1272D;">
	<!ENTITY st21 "fill:#243033;">
	<!ENTITY st22 "fill:#F2F2F2;">
	<!ENTITY st23 "display:inline;fill:#957FB2;">
	<!ENTITY st24 "fill:#F7931E;">
	<!ENTITY st25 "display:inline;fill:#993F55;">
	<!ENTITY st26 "fill:#F9275D;">
	<!ENTITY st27 "display:inline;fill:#998675;">
	<!ENTITY st28 "display:inline;fill:#FCEE21;">
	<!ENTITY st29 "fill:#C1272D;">
	<!ENTITY st30 "display:inline;fill:#FFFFFF;">
	<!ENTITY st31 "display:inline;fill:#662D91;">
	<!ENTITY st32 "display:inline;fill:#666666;">
	<!ENTITY st33 "fill:#992029;">
	<!ENTITY st34 "fill:#998675;">
	<!ENTITY st35 "fill:#999999;">
	<!ENTITY st36 "display:inline;fill:#CC667E;">
	<!ENTITY st37 "display:inline;fill:#CCAF23;">
	<!ENTITY st38 "fill:#FFFFFF;">
	<!ENTITY st39 "display:inline;fill:#333333;">
	<!ENTITY st40 "fill:#66625D;">
	<!ENTITY st41 "fill:#666666;">
	<!ENTITY st42 "fill:#CCCCCC;">
	<!ENTITY st43 "display:inline;">
	<!ENTITY st44 "fill:#9E0066;">
	<!ENTITY st45 "display:inline;fill:#00527F;">
	<!ENTITY st46 "display:inline;fill:#0071BC;">
	<!ENTITY st47 "fill:#333333;">
	<!ENTITY st48 "display:inline;fill:#3A3632;">
	<!ENTITY st49 "fill:#39B54A;">
	<!ENTITY st50 "display:inline;fill:#D8B3FF;">
	<!ENTITY st51 "display:inline;fill:#716D5C;">
	<!ENTITY st52 "display:inline;fill:#736357;">
	<!ENTITY st53 "fill:#D3E9F4;">
	<!ENTITY st54 "fill:#3A3632;">
	<!ENTITY st55 "display:inline;fill:#A6E22A;">
	<!ENTITY st56 "fill:#716D5C;">
	<!ENTITY st57 "display:none;">
	<!ENTITY st58 "fill:#736357;">
	<!ENTITY st59 "fill:#FFFFFF;stroke:#000000;stroke-width:1.3;">
	<!ENTITY st60 "display:inline;fill:#462166;">
]>
<svg version="1.1" xmlns="http://www.w3.org/2000/svg" xmlns:xlink="http://www.w3.org/1999/xlink" x="0px" y="0px" viewBox="0 0 240 300" style="enable-background:new 0 0 240 300;" xml:space="preserve">
<g id="base">
	<polygon style="&st34;" points="170,195 170,165.667 170,160 165,160 165,150 160,150 155,150 155,145 150,145 150,140 85,140 
		85,145 80,145 80,150 75,150 75,160 70,160 70,240 70,260 75,260 75,270 85,270 85,275 85,280 85,300 145,300 145,275 145,270 
		160,270 160,260 170,260 170,240 170,220 185,220 185,195 	"/>
	<rect x="175" y="202" style="&st58;" width="5" height="10"/>
	<polygon style="&st58;" points="100,225 100,205 95,205 95,225 95,230 110,230 110,225 	"/>
	<rect x="70" y="185" style="&st54;" width="20" height="5"/>
	<rect x="90" y="245" style="&st58;" width="25" height="5"/>
	<rect x="115" y="185" style="&st54;" width="25" height="5"/>
	<rect x="75" y="200" style="&st54;" width="5" height="5"/>
	<rect x="120" y="200" style="&st54;" width="5" height="5"/>
	<rect x="85" y="275" style="&st58;" width="40" height="5"/>
	<rect x="95" y="260" style="&st58;" width="15" height="5"/>
</g>
<g id="beard">
	<path style="&st54;" d="M160,220v10h-15v10h-15v-10h-5H85h-5v10H70v-20h-5v20v25h5v10h5v10h80v-10h15v-10h5v-25v-10v-10H160z
		 M85,235h40v20H85V235z"/>
</g>
<g id="glasses">
	<g>
		<rect x="65" y="195" style="&st53;" width="30" height="20"/>
	</g>
	<g>
		<rect x="110" y="195" style="&st53;" width="35" height="20"/>
	</g>
	<rect x="65" y="190" width="120" height="5"/>
</g>
<g id="faces">
	<g id="smirk">
		<rect x="85" y="235" style="&st34;" width="40" height="20"/>
		<polygon style="&st58;" points="110,240 110,245 90,245 90,250 115,250 115,245 115,240 		"/>
	</g>
	<g id="smile" style="&st57;">
		<rect x="85" y="235" style="&st27;" width="40" height="20"/>
		<polygon style="&st30;" points="90,240 90,245 95,245 95,250 110,250 110,245 115,245 115,240 		"/>
	</g>
	<g id="frown" style="&st57;">
		<rect x="85" y="235" style="&st27;" width="40" height="20"/>
		<polygon style="&st52;" points="95,250 95,245 115,245 115,240 90,240 90,245 90,250 		"/>
	</g>
	<g id="surprised" style="&st57;">
		<rect x="85" y="240" style="&st27;" width="40" height="15"/>
		<rect x="95" y="240" style="&st52;" width="15" height="10"/>
		<rect x="115" y="175" style="&st48;" width="25" height="5"/>
		<rect x="115" y="185" style="&st27;" width="25" height="5"/>
		<polygon style="&st48;" points="140,175 115,175 115,180 140,180 140,185 145,185 145,175 		"/>
		<polygon style="&st48;" points="85,175 70,175 65,175 65,180 65,185 70,185 70,180 85,180 		"/>
		<rect x="70" y="185" style="&st27;" width="20" height="5"/>
	</g>
	<g id="right_up" style="&st57;">
		<rect x="115" y="185" style="&st27;" width="25" height="5"/>
		<polygon style="&st48;" points="140,175 115,175 115,180 140,180 140,185 145,185 145,175 		"/>
		<rect x="85" y="235" style="&st27;" width="40" height="20"/>
		<polygon style="&st52;" points="110,240 110,245 90,245 90,250 115,250 115,245 115,240 		"/>
	</g>
	<g id="left_up" style="&st57;">
		<rect x="85" y="235" style="&st27;" width="40" height="20"/>
		<polygon style="&st48;" points="85,175 65,175 65,180 85,180 85,185 90,185 90,175 		"/>
		<rect x="70" y="185" style="&st27;" width="20" height="5"/>
		<polygon style="&st52;" points="95,245 95,240 90,240 90,250 95,250 115,250 115,245 		"/>
	</g>
	<g id="tongue" style="&st57;">
		<polygon style="&st30;" points="90,240 90,242.5 90,245 120,245 120,242.5 120,240 		"/>
		<rect x="90" y="245" style="&st43;" width="30" height="5"/>
		<polygon style="&st36;" points="95,245 95,250 90,250 90,255 90,260 90,265 105,265 105,260 110,260 110,255 110,250 115,250 
			115,245 		"/>
		<polygon style="&st25;" points="100,245 100,250 95,250 95,260 100,260 100,255 105,255 105,245 		"/>
	</g>
</g>
<g id="hats">
	<g id="hardhat" style="&st57;">
		<polygon style="&st28;" points="180,180 180,175 180,165 175,165 175,160 175,150 170,150 170,145 170,140 165,140 165,135 
			160,135 160,130 155,130 150,130 150,125 145,125 135,125 135,120 100,120 100,125 90,125 90,130 85,130 80,130 80,135 75,135 
			75,140 70,140 70,145 70,150 65,150 65,155 65,160 65,165 60,165 60,170 60,175 60,180 60,190 180,190 185,190 185,180 		"/>
		<polygon style="&st37;" points="110,115 110,120 105,120 105,125 100,125 100,130 100,135 100,140 95,140 95,145 95,160 90,160 
			90,175 85,175 85,190 90,190 105,190 105,175 105,160 105,145 110,145 110,140 110,135 110,130 115,130 115,125 115,120 120,120 
			120,115 		"/>
		<rect x="40" y="180" style="&st5;" width="105" height="10"/>
		<rect x="150" y="190" style="&st32;" width="35" height="10"/>
		<rect x="90" y="210" style="&st27;" width="5" height="5"/>
		<polygon style="&st7;" points="105,190 90,190 60,190 60,215 65,215 65,220 90,220 90,215 95,215 95,210 100,210 100,215 105,215 
			105,220 145,220 145,215 150,215 150,190 		"/>
		<rect x="65" y="190" style="&st30;" width="5" height="5"/>
		<rect x="108" y="190" style="&st30;" width="5" height="5"/>
	</g>
	<g id="dunce" style="&st57;">
		<polygon style="&st16;" points="180,5 180,10 175,10 175,15 170,15 170,20 165,20 165,25 165,30 160,30 160,35 155,35 155,40 
			150,40 150,45 150,50 145,50 145,55 140,55 140,60 135,60 135,65 135,70 130,70 130,75 125,75 125,80 120,80 120,85 115,85 
			115,90 115,95 110,95 110,100 105,100 105,105 100,105 100,110 100,115 95,115 95,120 90,120 90,125 85,125 85,130 80,130 80,135 
			80,140 75,140 75,145 70,145 70,150 115,150 115,155 130,155 130,160 145,160 145,165 160,165 160,170 170,170 170,175 175,175 
			175,170 175,165 175,160 175,155 175,150 175,145 175,140 175,135 175,130 175,125 175,120 180,120 180,115 180,110 180,105 
			180,100 180,95 180,90 180,85 180,80 180,75 180,70 180,65 180,60 180,55 180,50 180,45 180,40 185,40 185,35 185,30 185,25 
			185,20 185,15 185,10 185,5 		"/>
		<g style="&st43;">
			<polygon style="&st10;" points="70,155 65,155 65,165 70,165 70,160 75,160 75,155 80,155 80,150 70,150 			"/>
			<rect x="170" y="175" style="&st10;" width="5" height="5"/>
		</g>
		<g style="&st43;">
			<rect x="65" y="150" style="&st42;" width="5" height="5"/>
			<polygon style="&st42;" points="170,20 165,20 165,25 165,30 160,30 160,35 155,35 155,40 150,40 150,45 150,50 145,50 145,55 
				140,55 140,60 135,60 135,65 135,70 130,70 130,75 125,75 125,80 120,80 120,85 115,85 115,90 115,95 110,95 110,100 105,100 
				105,105 100,105 100,110 100,115 95,115 95,120 90,120 90,125 85,125 85,130 80,130 80,135 80,140 75,140 75,145 70,145 70,150 
				105,150 105,145 110,145 110,140 110,135 115,135 115,130 115,125 120,125 120,120 125,120 125,115 125,110 130,110 130,105 
				130,100 135,100 135,95 135,90 140,90 140,85 140,80 145,80 145,75 145,70 150,70 150,65 150,60 155,60 155,55 155,50 160,50 
				160,45 160,40 165,40 165,35 170,35 170,30 170,25 175,25 175,20 175,15 170,15 			"/>
			<rect x="175" y="10" style="&st42;" width="5" height="5"/>
		</g>
		<g style="&st43;">
			<rect x="105" y="250" style="&st53;" width="10" height="10"/>
			<rect x="110" y="260" style="&st53;" width="5" height="5"/>
		</g>
		<g style="&st43;">
			<rect x="105" y="130" width="10" height="5"/>
			<rect x="110" y="135" width="15" height="5"/>
			<rect x="125" y="130" width="10" height="5"/>
			<rect x="130" y="125" width="10" height="5"/>
			<rect x="135" y="110" width="5" height="15"/>
			<rect x="130" y="105" width="10" height="5"/>
			<rect x="120" y="100" width="15" height="5"/>
			<rect x="115" y="105" width="5" height="10"/>
			<rect x="110" y="115" width="5" height="10"/>
			<rect x="105" y="125" width="5" height="5"/>
		</g>
	</g>
	<g id="empty-head" style="&st57;">
		<rect x="70" y="140" style="&st30;" width="100" height="25"/>
		<polygon style="&st43;" points="17,95 17,90 22,90 22,100 17,100 12,100 12,95 		"/>
		<polygon style="&st27;" points="190,80 190,75 185,75 185,70 175,70 175,65 170,65 170,165 175,165 175,160 185,160 185,150 
			190,150 190,145 195,145 195,80 		"/>
		<g style="&st43;">
			<polygon style="&st29;" points="140,165 140,175 150,175 150,180 160,180 160,190 170,190 170,180 170,175 170,165 			"/>
			<rect x="165" y="195" style="&st29;" width="5" height="5"/>
		</g>
		<g style="&st43;">
			<polygon style="&st9;" points="135,150 135,140 135,135 131,135 130,135 130,125 125,125 125,120 120,120 120,115 115,115 
				115,110 110,110 105,110 105,105 100,105 100,100 80,100 80,105 95,105 95,110 80,110 80,115 75,115 75,120 70,120 70,135 
				70,140 75,140 75,145 95,145 95,140 80,140 80,135 75,135 75,125 80,125 80,120 85,120 85,115 105,115 105,125 100,125 100,135 
				95,135 95,140 105,140 105,135 105,130 110,130 110,120 115,120 115,125 120,125 120,130 125,130 125,135 125,140 130,140 
				130,150 130,155 135,155 135,160 135,165 140,165 140,160 140,155 140,150 			"/>
			<rect x="70" y="105" style="&st9;" width="10" height="5"/>
			<polygon style="&st9;" points="60,115 50,115 50,120 45,120 45,115 35,115 35,110 30,110 30,105 25,105 25,100 20,100 20,110 
				25,110 25,115 30,115 30,120 35,120 40,120 40,125 55,125 55,120 65,120 65,115 70,115 70,110 60,110 			"/>
		</g>
		<polygon style="&st20;" points="75,165 70,165 70,180 75,180 75,170 80,170 80,165 		"/>
	</g>
	<g id="superhero" style="&st57;">
		<rect x="80" y="230" style="&st52;" width="50" height="5"/>
		<polygon style="&st8;" points="190,295 190,290 185,290 185,280 180,280 180,270 175,270 175,265 170,265 170,210 170,160 170,90 
			165,90 165,95 160,95 160,99 155,99 155,110 150,110 150,120 145,120 145,133 140,133 140,140 130,140 130,135 120,135 120,130 
			95,130 95,90 90,90 90,99 85,99 85,115 80,115 80,125 75,125 75,140 70,140 70,210 70,215 70,220 80,220 80,225 90,225 90,230 
			95,230 95,235 105,235 105,230 115,230 115,225 130,225 130,220 140,220 140,215 145,215 145,260 140,260 140,265 130,265 
			130,270 120,270 120,275 85,275 85,270 80,270 80,260 75,260 75,255 70,255 70,265 65,265 65,270 60,270 60,280 55,280 55,285 
			50,285 50,295 45,295 45,300 50,300 55,300 60,300 65,300 70,300 75,300 80,300 85,300 120,300 130,300 140,300 145,300 195,300 
			195,295 		"/>
		<g style="&st43;">
			<polygon style="&st22;" points="85,195 80,195 80,190 75,190 75,180 70,180 70,205 75,205 75,210 80,210 85,210 85,205 90,205 
				90,195 			"/>
			<polygon style="&st22;" points="140,175 140,180 140,185 125,185 125,190 120,190 120,195 110,195 110,200 110,205 115,205 
				115,210 130,210 130,205 140,205 140,200 140,195 145,195 145,190 145,185 145,180 145,175 			"/>
		</g>
		<rect x="170" y="190" style="&st30;" width="20" height="30"/>
		<rect x="80" y="255" style="&st27;" width="50" height="10"/>
		<rect x="85" y="265" style="&st27;" width="35" height="5"/>
		<rect x="125" y="235" style="&st52;" width="5" height="20"/>
		<rect x="80" y="235" style="&st52;" width="5" height="20"/>
		<rect x="70" y="240" style="&st52;" width="10" height="15"/>
		<rect x="130" y="240" style="&st52;" width="15" height="15"/>
		<rect x="75" y="260" style="&st52;" width="65" height="5"/>
		<rect x="75" y="255" style="&st52;" width="70" height="5"/>
		<rect x="80" y="265" style="&st52;" width="50" height="5"/>
		<rect x="90" y="245" style="&st48;" width="25" height="5"/>
		<polygon style="&st39;" points="135,140 130,140 130,135 120,135 120,130 95,130 95,135 90,135 90,139 85,139 85,145 80,145 
			80,150 75,150 75,155 70,155 70,165 75,165 75,160 80,160 80,155 85,155 90,155 90,150 95,150 100,150 115,150 115,155 120,155 
			125,155 125,160 130,160 135,160 135,155 140,155 140,150 140,145 140,140 		"/>
		<rect x="85" y="270" style="&st52;" width="35" height="5"/>
		<polygon style="&st39;" points="100,225 100,205 95,205 95,225 90,225 90,230 95,230 95,235 105,235 105,230 110,230 110,225 		
			"/>
		<rect x="140" y="260" style="&st8;" width="5" height="40"/>
		<polygon style="&st39;" points="165,295 165,290 160,290 160,280 155,280 155,270 150,270 150,265 145,265 145,270 140,270 
			140,280 135,280 135,285 130,285 130,295 120,295 120,300 170,300 170,295 		"/>
		<polygon style="&st39;" points="85,295 85,285 80,285 80,275 75,275 75,270 70,270 70,290 65,290 65,296 60,296 60,300 90,300 
			90,295 		"/>
		<rect x="80" y="155" style="&st8;" width="45" height="5"/>
		<rect x="90" y="150" style="&st8;" width="25" height="5"/>
		<rect x="135" y="155" style="&st8;" width="5" height="5"/>
	</g>
	<g id="swiss-army" style="&st57;">
		<g style="&st43;">
			<g>
				<rect x="165" y="130" style="&st35;" width="5" height="15"/>
				<polygon style="&st35;" points="180,120 180,115 175,115 175,125 180,125 180,135 185,135 185,120 				"/>
				<rect x="195" y="105" style="&st41;" width="10" height="5"/>
				<rect x="180" y="115" style="&st41;" width="15" height="5"/>
				<rect x="170" y="130" style="&st41;" width="10" height="5"/>
				<polygon style="&st35;" points="225,65 225,70 220,70 220,75 215,75 215,80 210,80 210,85 205,85 205,110 210,110 210,90 
					220,90 220,95 225,95 225,90 230,90 230,85 230,80 230,75 230,70 230,65 				"/>
				<polygon style="&st35;" points="195,110 195,105 190,105 190,110 190,115 195,115 195,120 200,120 200,110 				"/>
			</g>
			<g>
				<rect x="130" y="65" style="&st41;" width="5" height="30"/>
				<polygon style="&st35;" points="145,85 145,80 145,75 145,70 150,70 150,65 155,65 155,60 160,60 160,55 165,55 165,50 170,50 
					170,45 150,45 150,50 140,50 140,55 135,55 135,60 135,65 135,70 135,75 135,80 135,85 135,90 135,95 130,95 130,100 130,105 
					130,110 130,115 130,120 130,125 155,125 155,120 160,120 160,115 165,115 165,110 170,110 170,105 170,100 170,95 170,90 
					170,85 165,85 165,80 160,80 160,85 160,90 160,95 160,100 150,100 150,95 145,95 145,90 				"/>
			</g>
			<g>
				<g>
					<polygon style="&st41;" points="100,115 100,110 90,110 90,105 80,105 80,110 85,110 85,115 95,115 95,120 105,120 105,125 
						110,125 110,120 110,115 					"/>
					<rect x="75" y="100" style="&st41;" width="5" height="5"/>
					<polygon style="&st41;" points="45,85 35,85 35,80 25,80 25,75 15,75 15,80 20,80 20,85 25,85 25,90 35,90 35,95 40,95 40,100 
						50,100 50,105 55,105 55,100 55,95 55,90 45,90 					"/>
					<rect x="65" y="105" style="&st41;" width="5" height="5"/>
				</g>
				<path style="&st35;" d="M75,105v-5v-5h-5v-5h-5v-5h-5v-5v-5h-5v-5h-5v-5h-5v-5v-5H35v5h5v5v5h5v5h5v5v5h5v5v5v5v5h5v5v5h5v5v5v5
					v5v10h10v-10v-5h5v-5h-5v-5v-5h5v-5v-5H75z M65,110v-5h5v5H65z"/>
			</g>
			<g>
				<rect x="95" y="25" style="&st41;" width="5" height="25"/>
				<rect x="105" y="95" style="&st41;" width="10" height="5"/>
				<polygon style="&st35;" points="115,20 115,15 115,10 115,5 110,5 110,0 105,0 105,5 100,5 100,10 100,15 100,20 95,20 95,25 
					100,25 100,30 100,35 100,40 100,45 100,50 95,50 95,55 95,60 95,65 95,70 95,75 95,80 95,85 100,85 100,90 100,95 100,100 
					100,105 100,110 100,115 100,120 120,120 120,115 120,110 120,105 120,100 105,100 105,95 120,95 120,90 120,85 120,80 120,75 
					120,70 120,65 120,60 120,55 120,50 120,45 120,40 120,35 120,30 120,25 120,20 				"/>
			</g>
			<g>
				<polygon style="&st29;" points="175,160 175,145 170,145 170,140 165,140 165,130 155,130 155,125 150,125 150,120 140,120 
					140,115 90,115 90,120 85,120 85,125 80,125 80,130 75,130 75,140 70,140 70,145 65,145 65,160 60,160 60,185 180,185 180,160 
									"/>
				<polygon style="&st33;" points="60,160 60,165 60,185 65,185 65,165 70,165 70,185 75,185 75,165 80,165 80,185 85,185 85,165 
					90,165 90,185 95,185 95,165 100,165 100,185 105,185 105,165 110,165 110,185 115,185 115,165 120,165 120,185 125,185 
					125,165 130,165 130,185 135,185 135,165 140,165 140,185 145,185 145,165 150,165 150,185 155,185 155,165 160,165 160,185 
					165,185 165,165 170,165 170,185 175,185 175,165 180,165 180,160 				"/>
				<polygon style="&st38;" points="110,140 105,140 105,135 100,135 100,140 95,140 95,145 100,145 100,150 105,150 105,145 
					110,145 				"/>
			</g>
		</g>
	</g>
	<g id="dumbo">
		<polygon style="&st44;" points="155,50 130,50 130,45 125,45 125,5 155,5 		"/>
		<rect x="70" y="135" style="&st38;" width="100" height="30"/>
		<g>
			<g>
				<g>
					<polygon style="&st21;" points="165,75 165,70 160,70 160,80 165,80 165,85 170,85 170,75 					"/>
					<polygon style="&st21;" points="175,90 175,85 170,85 170,95 175,95 175,100 180,100 180,90 					"/>
					<polygon style="&st21;" points="185,105 185,100 180,100 180,110 185,110 185,115 190,115 190,105 					"/>
					<polygon style="&st21;" points="195,120 195,115 190,115 190,125 195,125 195,130 200,130 200,120 					"/>
					<polygon style="&st21;" points="205,135 205,130 200,130 200,140 205,140 205,145 210,145 210,135 					"/>
					<polygon style="&st21;" points="215,150 215,145 210,145 210,155 215,155 215,160 220,160 220,150 					"/>
					<polygon style="&st21;" points="225,165 225,160 220,160 220,170 225,170 225,175 230,175 230,165 					"/>
				</g>
				<g>
					<polygon style="&st21;" points="135,75 135,70 130,70 130,80 135,80 135,85 140,85 140,75 					"/>
					<polygon style="&st21;" points="145,90 145,85 140,85 140,95 145,95 145,100 150,100 150,90 					"/>
					<polygon style="&st21;" points="155,105 155,100 150,100 150,110 155,110 155,115 160,115 160,105 					"/>
					<polygon style="&st21;" points="165,120 165,115 160,115 160,125 165,125 165,130 170,130 170,120 					"/>
					<polygon style="&st21;" points="175,135 175,130 170,130 170,140 175,140 175,145 180,145 180,135 					"/>
					<polygon style="&st21;" points="185,150 185,145 180,145 180,155 185,155 185,160 190,160 190,150 					"/>
					<polygon style="&st21;" points="195,165 195,160 190,160 190,170 195,170 195,175 200,175 200,165 					"/>
				</g>
				<g>
					<polygon style="&st21;" points="95,75 95,70 90,70 90,80 95,80 95,85 100,85 100,75 					"/>
					<polygon style="&st21;" points="105,90 105,85 100,85 100,95 105,95 105,100 110,100 110,90 					"/>
					<polygon style="&st21;" points="115,105 115,100 110,100 110,110 115,110 115,115 120,115 120,105 					"/>
					<polygon style="&st21;" points="125,120 125,115 120,115 120,125 125,125 125,130 130,130 130,120 					"/>
					<polygon style="&st21;" points="135,135 135,130 130,130 130,140 135,140 135,145 140,145 140,135 					"/>
					<polygon style="&st21;" points="145,150 145,145 140,145 140,155 145,155 145,160 150,160 150,150 					"/>
					<polygon style="&st21;" points="155,165 155,160 150,160 150,170 155,170 155,175 160,175 160,165 					"/>
				</g>
			</g>
			<polygon style="&st12;" points="135,55 135,60 120,60 120,55 95,55 95,60 85,60 85,55 65,55 65,60 70,60 70,175 80,175 80,95 
				85,95 85,85 90,85 95,85 95,95 100,95 100,175 115,175 115,95 120,95 120,85 135,85 135,95 140,95 140,175 160,175 160,60 
				165,60 165,55 			"/>
			<polygon style="&st40;" points="165,55 165,60 160,60 160,175 170,175 170,60 175,60 175,55 			"/>
			<polygon style="&st40;" points="120,85 120,95 115,95 115,170 120,170 120,100 125,100 125,85 			"/>
			<polygon style="&st40;" points="85,85 85,95 80,95 80,170 85,170 85,100 90,100 90,85 			"/>
			<g>
				<g>
					<polygon style="&st1;" points="75,70 75,75 70,75 70,85 75,85 75,80 80,80 80,70 					"/>
					<polygon style="&st1;" points="65,90 60,90 60,100 65,100 65,95 70,95 70,85 65,85 					"/>
					<polygon style="&st1;" points="55,105 50,105 50,115 55,115 55,110 60,110 60,100 55,100 					"/>
					<polygon style="&st1;" points="45,120 40,120 40,130 45,130 45,125 50,125 50,115 45,115 					"/>
					<polygon style="&st1;" points="35,135 30,135 30,145 35,145 35,140 40,140 40,130 35,130 					"/>
					<polygon style="&st1;" points="25,150 20,150 20,160 25,160 25,155 30,155 30,145 25,145 					"/>
					<polygon style="&st1;" points="15,165 10,165 10,175 15,175 15,170 20,170 20,160 15,160 					"/>
				</g>
				<g>
					<polygon style="&st1;" points="105,70 105,75 100,75 100,85 105,85 105,80 110,80 110,70 					"/>
					<polygon style="&st1;" points="95,90 90,90 90,100 95,100 95,95 100,95 100,85 95,85 					"/>
					<polygon style="&st1;" points="85,105 80,105 80,115 85,115 85,110 90,110 90,100 85,100 					"/>
					<polygon style="&st1;" points="75,120 70,120 70,130 75,130 75,125 80,125 80,115 75,115 					"/>
					<polygon style="&st1;" points="65,135 60,135 60,145 65,145 65,140 70,140 70,130 65,130 					"/>
					<polygon style="&st1;" points="55,150 50,150 50,160 55,160 55,155 60,155 60,145 55,145 					"/>
					<polygon style="&st1;" points="45,165 40,165 40,175 45,175 45,170 50,170 50,160 45,160 					"/>
				</g>
				<g>
					<polygon style="&st1;" points="145,70 145,75 140,75 140,85 145,85 145,80 150,80 150,70 					"/>
					<polygon style="&st1;" points="135,90 130,90 130,100 135,100 135,95 140,95 140,85 135,85 					"/>
					<polygon style="&st1;" points="125,105 120,105 120,115 125,115 125,110 130,110 130,100 125,100 					"/>
					<polygon style="&st1;" points="115,120 110,120 110,130 115,130 115,125 120,125 120,115 115,115 					"/>
					<polygon style="&st1;" points="105,135 100,135 100,145 105,145 105,140 110,140 110,130 105,130 					"/>
					<polygon style="&st1;" points="95,150 90,150 90,160 95,160 95,155 100,155 100,145 95,145 					"/>
					<polygon style="&st1;" points="85,165 80,165 80,175 85,175 85,170 90,170 90,160 85,160 					"/>
				</g>
			</g>
			<rect y="165" style="&st12;" width="130" height="10"/>
			<rect x="130" y="165" style="&st40;" width="110" height="10"/>
			<rect x="120" y="55" style="&st40;" width="5" height="5"/>
		</g>
		<rect x="115" style="&st15;" width="20" height="40"/>
		<rect x="105" style="&st42;" width="5" height="55"/>
		<rect x="110" y="10" style="&st15;" width="5" height="35"/>
		<rect x="150" y="40" style="&st15;" width="5" height="5"/>
		<rect x="130" y="10" style="&st38;" width="5" height="25"/>
		<polygon style="&st42;" points="140,15 140,25 135,25 135,30 140,30 140,40 145,40 145,15 		"/>
		<polygon style="&st15;" points="165,10 150,10 150,50 165,50 165,45 170,45 170,15 165,15 		"/>
		<rect x="90" y="80" style="&st40;" width="5" height="5"/>
		<rect x="125" y="80" style="&st40;" width="5" height="5"/>
	</g>
	<g id="surprise" style="&st57;">
		<rect x="65" y="80" style="&st50;" width="90" height="90"/>
		<rect x="155" y="80" style="&st23;" width="10" height="90"/>
		<rect x="165" y="80" style="&st60;" width="10" height="90"/>
		<polygon style="&st31;" points="125,65 125,60 110,60 110,65 105,65 105,70 105,75 110,75 110,80 125,80 125,75 130,75 130,70 
			130,65 		"/>
		<g style="&st43;">
			<polygon style="&st0;" points="155,65 155,70 145,70 145,75 135,75 135,70 130,70 130,75 125,75 125,80 155,80 155,75 160,75 
				160,70 160,65 			"/>
			<rect x="140" y="60" style="&st0;" width="15" height="5"/>
			<rect x="135" y="65" style="&st0;" width="5" height="5"/>
		</g>
		<g style="&st43;">
			<polygon style="&st0;" points="105,75 105,70 100,70 100,75 90,75 90,70 85,70 85,65 80,65 80,70 80,75 85,75 85,80 110,80 
				110,75 			"/>
			<rect x="85" y="60" style="&st0;" width="10" height="5"/>
			<rect x="95" y="65" style="&st0;" width="5" height="5"/>
		</g>
		<rect x="100" y="80" style="&st31;" width="15" height="90"/>
		<polygon style="&st23;" points="180,85 180,80 175,80 175,170 180,170 180,165 185,165 185,85 		"/>
	</g>
	<g id="silly" style="&st57;">
		<polygon style="&st20;" points="95,115 95,120 85,120 85,125 80,125 80,130 80,135 75,135 75,140 75,145 70,145 70,150 70,155 
			65,155 65,160 65,165 65,170 65,175 65,180 95,180 95,175 95,170 95,165 95,160 95,155 100,155 100,150 100,145 105,145 105,140 
			105,135 110,135 110,130 110,125 115,125 115,120 115,115 		"/>
		<rect x="115" y="100" style="&st6;" width="5" height="15"/>
		<g style="&st43;">
			<rect x="95" y="175" style="&st49;" width="50" height="5"/>
			<rect x="95" y="170" style="&st49;" width="50" height="5"/>
			<rect x="95" y="165" style="&st49;" width="50" height="5"/>
			<rect x="95" y="160" style="&st49;" width="50" height="5"/>
			<rect x="95" y="155" style="&st49;" width="50" height="5"/>
			<rect x="100" y="150" style="&st49;" width="40" height="5"/>
			<rect x="100" y="145" style="&st49;" width="40" height="5"/>
			<rect x="105" y="140" style="&st49;" width="30" height="5"/>
			<rect x="105" y="135" style="&st49;" width="30" height="5"/>
			<rect x="110" y="130" style="&st49;" width="20" height="5"/>
			<rect x="110" y="125" style="&st49;" width="20" height="5"/>
			<rect x="115" y="120" style="&st49;" width="10" height="5"/>
			<rect x="115" y="115" style="&st49;" width="10" height="5"/>
		</g>
		<polygon style="&st18;" points="170,155 170,150 165,150 165,145 165,140 160,140 160,135 160,130 155,130 155,125 145,125 
			145,120 135,120 135,115 125,115 125,120 125,125 130,125 130,130 130,135 135,135 135,140 135,145 140,145 140,150 140,155 
			145,155 145,160 145,165 145,170 175,170 175,165 175,160 175,155 		"/>
		<polygon style="&st20;" points="110,85 110,90 110,95 115,95 115,100 120,100 120,95 125,95 125,90 125,85 		"/>
		<polygon style="&st46;" points="120,100 120,105 135,105 135,110 145,110 145,115 170,115 170,110 175,110 175,105 180,105 
			180,100 		"/>
		<polygon style="&st46;" points="100,100 100,95 85,95 85,90 75,90 75,95 70,95 70,100 65,100 65,105 115,105 115,100 		"/>
		<polygon style="&st45;" points="145,170 145,175 145,180 210,180 210,170 		"/>
	</g>
	<g id="laptop" style="&st57;">
		<rect x="60" y="70" style="&st43;" width="125" height="85"/>
		<rect x="65" y="75" style="&st17;" width="115" height="75"/>
		<g style="&st43;">
			<g>
				<rect x="80" y="115" style="&st56;" width="5" height="5"/>
				<rect x="85" y="110" style="&st56;" width="5" height="5"/>
				<rect x="90" y="105" style="&st56;" width="5" height="5"/>
				<rect x="85" y="120" style="&st56;" width="5" height="5"/>
				<rect x="90" y="125" style="&st56;" width="5" height="5"/>
			</g>
			<g>
				<rect x="155" y="115" style="&st56;" width="5" height="5"/>
				<rect x="150" y="120" style="&st56;" width="5" height="5"/>
				<rect x="145" y="125" style="&st56;" width="5" height="5"/>
				<rect x="150" y="110" style="&st56;" width="5" height="5"/>
				<rect x="145" y="105" style="&st56;" width="5" height="5"/>
			</g>
			<g>
				<polygon style="&st26;" points="105,110 105,100 100,100 100,130 105,130 105,115 115,115 115,110 				"/>
				<rect x="115" y="115" style="&st26;" width="5" height="15"/>
			</g>
			<polygon style="&st26;" points="135,125 135,100 130,100 130,105 125,105 125,110 130,110 130,125 125,125 125,130 140,130 
				140,125 			"/>
		</g>
		<rect x="35" y="155" style="&st3;" width="120" height="5"/>
		<rect x="155" y="155" style="&st4;" width="30" height="5"/>
		<rect x="40" y="160" style="&st3;" width="110" height="5"/>
		<rect x="150" y="160" style="&st4;" width="30" height="5"/>
	</g>
</g>
</svg>
